<?xml version="1.0" standalone="no"?>
 <!DOCTYPE svg PUBLIC "-//W3C//DTD SVG 1.1//EN" 
 "http://www.w3.org/Graphics/SVG/1.1/DTD/svg11.dtd"> 
<svg xmlns="http://www.w3.org/2000/svg" version="1.1" 
    width="29.7002cm" height="21.0007cm" viewBox="0 0 116930 82680 ">
<title>SVG Picture created as schematics.svg date 2015/11/09 03:05:06 </title>
  <desc>Picture generated by Eeschema-SVG </desc>
<g style="fill:#000000; fill-opacity:1;stroke:#000000; stroke-opacity:1;
stroke-linecap:round; stroke-linejoin:round; "
 transform="translate(0 0) scale(1 1)">
</g>
<g style="fill:#A00000; fill-opacity:0.0; 
stroke:#A00000; stroke-width:100; stroke-opacity:1; 
stroke-linecap:round; stroke-linejoin:round;">
<path d="M4000 4000
L112930 4000
L112930 78680
L4000 78680
L4000 4000
" />
<path d="M4700 4700
L112230 4700
L112230 77980
L4700 77980
L4700 4700
" />
<path d="M25780 4000
L25780 4700
" />
<path d="M15030 4550
L14750 4550
" />
<path d="M14890 4550
L14890 4050
L14840 4120
L14790 4170
L14750 4200
" />
<path d="M25780 78680
L25780 77980
" />
<path d="M15030 78530
L14750 78530
" />
<path d="M14890 78530
L14890 78030
L14840 78100
L14790 78150
L14750 78180
" />
<path d="M47560 4000
L47560 4700
" />
<path d="M36530 4100
L36550 4080
L36600 4050
L36720 4050
L36760 4080
L36790 4100
L36810 4150
L36810 4200
L36790 4270
L36500 4550
L36810 4550
" />
<path d="M47560 78680
L47560 77980
" />
<path d="M36530 78080
L36550 78060
L36600 78030
L36720 78030
L36760 78060
L36790 78080
L36810 78130
L36810 78180
L36790 78250
L36500 78530
L36810 78530
" />
<path d="M69340 4000
L69340 4700
" />
<path d="M58280 4050
L58590 4050
L58420 4240
L58500 4240
L58540 4270
L58570 4290
L58590 4340
L58590 4460
L58570 4500
L58540 4530
L58500 4550
L58350 4550
L58310 4530
L58280 4500
" />
<path d="M69340 78680
L69340 77980
" />
<path d="M58280 78030
L58590 78030
L58420 78220
L58500 78220
L58540 78250
L58570 78270
L58590 78320
L58590 78440
L58570 78480
L58540 78510
L58500 78530
L58350 78530
L58310 78510
L58280 78480
" />
<path d="M91120 4000
L91120 4700
" />
<path d="M80320 4220
L80320 4550
" />
<path d="M80200 4030
L80090 4390
L80390 4390
" />
<path d="M91120 78680
L91120 77980
" />
<path d="M80320 78200
L80320 78530
" />
<path d="M80200 78010
L80090 78370
L80390 78370
" />
<path d="M102130 4050
L101890 4050
L101870 4290
L101890 4270
L101940 4240
L102060 4240
L102100 4270
L102130 4290
L102150 4340
L102150 4460
L102130 4500
L102100 4530
L102060 4550
L101940 4550
L101890 4530
L101870 4500
" />
<path d="M102130 78030
L101890 78030
L101870 78270
L101890 78250
L101940 78220
L102060 78220
L102100 78250
L102130 78270
L102150 78320
L102150 78440
L102130 78480
L102100 78510
L102060 78530
L101940 78530
L101890 78510
L101870 78480
" />
<path d="M4000 28890
L4700 28890
" />
<path d="M4240 16510
L4470 16510
" />
<path d="M4190 16650
L4350 16150
L4520 16650
" />
<path d="M112930 28890
L112230 28890
" />
<path d="M112470 16510
L112700 16510
" />
<path d="M112420 16650
L112580 16150
L112750 16650
" />
<path d="M4000 53780
L4700 53780
" />
<path d="M4390 41280
L4460 41300
L4480 41330
L4500 41380
L4500 41450
L4480 41490
L4460 41520
L4410 41540
L4220 41540
L4220 41040
L4390 41040
L4430 41070
L4460 41090
L4480 41140
L4480 41190
L4460 41230
L4430 41260
L4390 41280
L4220 41280
" />
<path d="M112930 53780
L112230 53780
" />
<path d="M112620 41280
L112690 41300
L112710 41330
L112730 41380
L112730 41450
L112710 41490
L112690 41520
L112640 41540
L112450 41540
L112450 41040
L112620 41040
L112660 41070
L112690 41090
L112710 41140
L112710 41190
L112690 41230
L112660 41260
L112620 41280
L112450 41280
" />
<path d="M4500 66380
L4480 66410
L4410 66430
L4360 66430
L4290 66410
L4240 66360
L4220 66310
L4200 66220
L4200 66150
L4220 66050
L4240 66000
L4290 65960
L4360 65930
L4410 65930
L4480 65960
L4500 65980
" />
<path d="M112730 66380
L112710 66410
L112640 66430
L112590 66430
L112520 66410
L112470 66360
L112450 66310
L112430 66220
L112430 66150
L112450 66050
L112470 66000
L112520 65960
L112590 65930
L112640 65930
L112710 65960
L112730 65980
" />
<path d="M79380 76420
L79450 75820
L79600 75820
L79680 75850
L79730 75910
L79750 75970
L79770 76080
L79760 76170
L79720 76280
L79680 76340
L79610 76390
L79530 76420
L79380 76420
" />
<path d="M80240 76420
L80280 76110
L80250 76050
L80200 76020
L80090 76020
L80020 76050
" />
<path d="M80240 76390
L80180 76420
L80040 76420
L79980 76390
L79960 76340
L79970 76280
L80000 76220
L80070 76190
L80210 76190
L80270 76170
" />
<path d="M80490 76020
L80720 76020
" />
<path d="M80590 75820
L80530 76340
L80550 76390
L80610 76420
L80670 76420
" />
<path d="M81090 76390
L81030 76420
L80920 76420
L80860 76390
L80840 76340
L80870 76110
L80900 76050
L80970 76020
L81080 76020
L81130 76050
L81160 76110
L81150 76170
L80850 76220
" />
<path d="M81370 76370
L81400 76390
L81370 76420
L81340 76390
L81370 76370
L81370 76420
" />
<path d="M81410 76050
L81440 76080
L81410 76110
L81380 76080
L81410 76050
L81410 76110
" />
<path d="M82150 76420
L82270 76420
L82320 76390
L82350 76370
L82430 76280
L82470 76170
L82500 75940
L82480 75880
L82450 75850
L82390 75820
L82280 75820
L82220 75850
L82190 75880
L82150 75940
L82130 76080
L82150 76140
L82180 76170
L82240 76190
L82350 76190
L82410 76170
L82440 76140
L82480 76080
" />
<path d="M83200 76020
L83150 76420
" />
<path d="M83190 76080
L83220 76050
L83290 76020
L83370 76020
L83420 76050
L83450 76110
L83410 76420
" />
<path d="M83780 76420
L83720 76390
L83690 76370
L83670 76310
L83690 76140
L83730 76080
L83760 76050
L83830 76020
L83910 76020
L83960 76050
L83990 76080
L84010 76140
L83990 76310
L83950 76370
L83920 76390
L83860 76420
L83780 76420
" />
<path d="M84230 76020
L84320 76420
L84510 76020
" />
<path d="M85190 75880
L85220 75850
L85280 75820
L85420 75820
L85480 75850
L85510 75880
L85530 75940
L85520 75990
L85480 76080
L85100 76420
L85470 76420
" />
<path d="M85910 75820
L85960 75820
L86020 75850
L86050 75880
L86070 75940
L86080 76050
L86070 76190
L86020 76310
L85980 76370
L85950 76390
L85890 76420
L85840 76420
L85780 76390
L85750 76370
L85730 76310
L85720 76190
L85730 76050
L85780 75940
L85820 75880
L85850 75850
L85910 75820
" />
<path d="M86610 76420
L86260 76420
" />
<path d="M86440 76420
L86510 75820
L86440 75910
L86370 75970
L86310 75990
" />
<path d="M87220 75820
L86930 75820
L86870 76110
L86900 76080
L86960 76050
L87100 76050
L87160 76080
L87190 76110
L87210 76170
L87190 76310
L87150 76370
L87120 76390
L87060 76420
L86920 76420
L86860 76390
L86830 76370
" />
<path d="M70970 77620
L70970 77020
" />
<path d="M71320 77620
L71060 77280
" />
<path d="M71320 77020
L70970 77370
" />
<path d="M71570 77620
L71570 77220
" />
<path d="M71570 77020
L71540 77050
L71570 77080
L71600 77050
L71570 77020
L71570 77080
" />
<path d="M72210 77570
L72180 77590
L72090 77620
L72030 77620
L71950 77590
L71890 77540
L71860 77480
L71830 77370
L71830 77280
L71860 77170
L71890 77110
L71950 77050
L72030 77020
L72090 77020
L72180 77050
L72210 77080
" />
<path d="M72720 77620
L72720 77310
L72690 77250
L72630 77220
L72520 77220
L72460 77250
" />
<path d="M72720 77590
L72660 77620
L72520 77620
L72460 77590
L72430 77540
L72430 77480
L72460 77420
L72520 77390
L72660 77390
L72720 77370
" />
<path d="M73260 77620
L73260 77020
" />
<path d="M73260 77590
L73200 77620
L73090 77620
L73030 77590
L73000 77570
L72970 77510
L72970 77340
L73000 77280
L73030 77250
L73090 77220
L73200 77220
L73260 77250
" />
<path d="M74000 77310
L74200 77310
" />
<path d="M74290 77620
L74000 77620
L74000 77020
L74290 77020
" />
<path d="M74540 77570
L74570 77590
L74540 77620
L74510 77590
L74540 77570
L74540 77620
" />
<path d="M74830 77620
L74830 77020
L74980 77020
L75060 77050
L75120 77110
L75150 77170
L75180 77280
L75180 77370
L75150 77480
L75120 77540
L75060 77590
L74980 77620
L74830 77620
" />
<path d="M75430 77570
L75460 77590
L75430 77620
L75400 77590
L75430 77570
L75430 77620
" />
<path d="M75690 77450
L75980 77450
" />
<path d="M75640 77620
L75840 77020
L76040 77620
" />
<path d="M76230 77570
L76260 77590
L76230 77620
L76200 77590
L76230 77570
L76230 77620
" />
<path d="M104530 76420
L104360 76140
" />
<path d="M104180 76420
L104250 75820
L104480 75820
L104540 75850
L104570 75880
L104590 75940
L104580 76020
L104540 76080
L104510 76110
L104440 76140
L104210 76140
" />
<path d="M105010 76390
L104950 76420
L104840 76420
L104780 76390
L104760 76340
L104790 76110
L104820 76050
L104890 76020
L105000 76020
L105050 76050
L105080 76110
L105070 76170
L104770 76220
" />
<path d="M105290 76020
L105380 76420
L105570 76020
" />
<path d="M105750 76370
L105780 76390
L105750 76420
L105720 76390
L105750 76370
L105750 76420
" />
<path d="M105790 76050
L105820 76080
L105790 76110
L105760 76080
L105790 76050
L105790 76110
" />
<path d="M70940 76390
L71030 76420
L71170 76420
L71230 76390
L71260 76370
L71290 76310
L71290 76250
L71260 76190
L71230 76170
L71170 76140
L71060 76110
L71000 76080
L70970 76050
L70940 75990
L70940 75940
L70970 75880
L71000 75850
L71060 75820
L71200 75820
L71290 75850
" />
<path d="M71540 76420
L71540 76020
" />
<path d="M71540 75820
L71510 75850
L71540 75880
L71570 75850
L71540 75820
L71540 75880
" />
<path d="M71780 76020
L72090 76020
L71780 76420
L72090 76420
" />
<path d="M72550 76390
L72490 76420
L72380 76420
L72320 76390
L72290 76340
L72290 76110
L72320 76050
L72380 76020
L72490 76020
L72550 76050
L72580 76110
L72580 76170
L72290 76220
" />
<path d="M72830 76370
L72860 76390
L72830 76420
L72800 76390
L72830 76370
L72830 76420
" />
<path d="M72830 76050
L72860 76080
L72830 76110
L72800 76080
L72830 76050
L72830 76110
" />
<path d="M73550 76250
L73840 76250
" />
<path d="M73500 76420
L73700 75820
L73900 76420
" />
<path d="M74350 76020
L74350 76420
" />
<path d="M74210 75790
L74060 76220
L74440 76220
" />
<path d="M104170 77620
L104170 77020
" />
<path d="M104720 77620
L104720 77020
" />
<path d="M104720 77590
L104660 77620
L104550 77620
L104490 77590
L104460 77570
L104430 77510
L104430 77340
L104460 77280
L104490 77250
L104550 77220
L104660 77220
L104720 77250
" />
<path d="M105000 77570
L105030 77590
L105000 77620
L104970 77590
L105000 77570
L105000 77620
" />
<path d="M105000 77250
L105030 77280
L105000 77310
L104970 77280
L105000 77250
L105000 77310
" />
<path d="M106070 77620
L105720 77620
" />
<path d="M105900 77620
L105900 77020
L105840 77110
L105780 77170
L105720 77190
" />
<path d="M106750 76990
L106240 77770
" />
<path d="M107270 77620
L106920 77620
" />
<path d="M107100 77620
L107100 77020
L107040 77110
L106980 77170
L106920 77190
" />
<path d="M70970 74620
L71310 74620
" />
<path d="M71070 75220
L71140 74620
" />
<path d="M71440 75220
L71490 74820
" />
<path d="M71510 74620
L71480 74650
L71510 74680
L71540 74650
L71510 74620
L71510 74680
" />
<path d="M71700 74820
L71930 74820
" />
<path d="M71800 74620
L71740 75140
L71760 75190
L71820 75220
L71880 75220
" />
<path d="M72160 75220
L72100 75190
L72080 75140
L72140 74620
" />
<path d="M72610 75190
L72550 75220
L72440 75220
L72380 75190
L72360 75140
L72390 74910
L72420 74850
L72490 74820
L72600 74820
L72650 74850
L72680 74910
L72670 74970
L72370 75020
" />
<path d="M72890 75170
L72920 75190
L72890 75220
L72860 75190
L72890 75170
L72890 75220
" />
<path d="M72930 74850
L72960 74880
L72930 74910
L72900 74880
L72930 74850
L72930 74910
" />
<path d="M73930 75220
L73640 75220
L73710 74620
" />
<path d="M74390 75220
L74430 74910
L74400 74850
L74350 74820
L74240 74820
L74170 74850
" />
<path d="M74390 75190
L74330 75220
L74190 75220
L74130 75190
L74110 75140
L74120 75080
L74150 75020
L74220 74990
L74360 74990
L74420 74970
" />
<path d="M74720 74820
L74670 75220
" />
<path d="M74710 74880
L74740 74850
L74810 74820
L74890 74820
L74940 74850
L74970 74910
L74930 75220
" />
<path d="M75520 74820
L75460 75310
L75420 75370
L75390 75390
L75330 75420
L75240 75420
L75190 75390
" />
<path d="M75470 75190
L75410 75220
L75300 75220
L75240 75190
L75210 75170
L75190 75110
L75210 74940
L75250 74880
L75280 74850
L75350 74820
L75460 74820
L75510 74850
" />
<path d="M75750 75220
L75800 74820
" />
<path d="M75790 74880
L75820 74850
L75890 74820
L75970 74820
L76020 74850
L76050 74910
L76010 75220
" />
<path d="M76050 74910
L76080 74850
L76150 74820
L76230 74820
L76280 74850
L76310 74910
L76270 75220
" />
<path d="M76860 74820
L76810 75220
" />
<path d="M76600 74820
L76560 75140
L76580 75190
L76640 75220
L76720 75220
L76780 75190
L76810 75170
" />
<path d="M77090 75220
L77140 74820
" />
<path d="M77160 74620
L77130 74650
L77160 74680
L77190 74650
L77160 74620
L77160 74680
" />
<path d="M77380 75220
L77430 74820
" />
<path d="M77410 74940
L77450 74880
L77480 74850
L77550 74820
L77600 74820
" />
<path d="M78260 74820
L78180 75420
" />
<path d="M78250 74850
L78320 74820
L78430 74820
L78480 74850
L78510 74880
L78530 74940
L78510 75110
L78470 75170
L78440 75190
L78380 75220
L78270 75220
L78210 75190
" />
<path d="M78750 75220
L78800 74820
" />
<path d="M78780 74940
L78820 74880
L78850 74850
L78920 74820
L78970 74820
" />
<path d="M79210 75220
L79150 75190
L79120 75170
L79100 75110
L79120 74940
L79160 74880
L79190 74850
L79260 74820
L79340 74820
L79390 74850
L79420 74880
L79440 74940
L79420 75110
L79380 75170
L79350 75190
L79290 75220
L79210 75220
" />
<path d="M79660 75220
L79730 74620
" />
<path d="M79700 74850
L79770 74820
L79880 74820
L79930 74850
L79960 74880
L79980 74940
L79960 75110
L79920 75170
L79890 75190
L79830 75220
L79720 75220
L79660 75190
" />
<path d="M80430 75190
L80370 75220
L80260 75220
L80200 75190
L80180 75140
L80210 74910
L80240 74850
L80310 74820
L80420 74820
L80470 74850
L80500 74910
L80490 74970
L80190 75020
" />
<path d="M81430 75220
L81470 74910
L81440 74850
L81390 74820
L81280 74820
L81210 74850
" />
<path d="M81430 75190
L81370 75220
L81230 75220
L81170 75190
L81150 75140
L81160 75080
L81190 75020
L81260 74990
L81400 74990
L81460 74970
" />
<path d="M81710 75220
L81760 74820
" />
<path d="M81750 74880
L81780 74850
L81850 74820
L81930 74820
L81980 74850
L82010 74910
L81970 75220
" />
<path d="M82010 74910
L82040 74850
L82110 74820
L82190 74820
L82240 74850
L82270 74910
L82230 75220
" />
<path d="M82560 74820
L82480 75420
" />
<path d="M82550 74850
L82620 74820
L82730 74820
L82780 74850
L82810 74880
L82830 74940
L82810 75110
L82770 75170
L82740 75190
L82680 75220
L82570 75220
L82510 75190
" />
<path d="M83140 75220
L83080 75190
L83060 75140
L83120 74620
" />
<path d="M83360 75220
L83410 74820
" />
<path d="M83430 74620
L83400 74650
L83430 74680
L83460 74650
L83430 74620
L83430 74680
" />
<path d="M83620 74820
L83850 74820
" />
<path d="M83650 75220
L83710 74710
L83750 74650
L83810 74620
L83870 74620
" />
<path d="M83990 75220
L84040 74820
" />
<path d="M84060 74620
L84030 74650
L84060 74680
L84090 74650
L84060 74620
L84060 74680
" />
<path d="M84510 75190
L84450 75220
L84340 75220
L84280 75190
L84260 75140
L84290 74910
L84320 74850
L84390 74820
L84500 74820
L84550 74850
L84580 74910
L84570 74970
L84270 75020
" />
<path d="M84790 75220
L84840 74820
" />
<path d="M84820 74940
L84860 74880
L84890 74850
L84960 74820
L85010 74820
" />
<path d="M71170 72510
L70970 72510
" />
<path d="M70970 72820
L70970 72220
L71260 72220
" />
<path d="M71480 72820
L71480 72420
" />
<path d="M71480 72220
L71450 72250
L71480 72280
L71510 72250
L71480 72220
L71480 72280
" />
<path d="M71860 72820
L71800 72790
L71770 72740
L71770 72220
" />
<path d="M72310 72790
L72250 72820
L72140 72820
L72080 72790
L72050 72740
L72050 72510
L72080 72450
L72140 72420
L72250 72420
L72310 72450
L72340 72510
L72340 72570
L72050 72620
" />
<path d="M72590 72770
L72620 72790
L72590 72820
L72560 72790
L72590 72770
L72590 72820
" />
<path d="M72590 72450
L72620 72480
L72590 72510
L72560 72480
L72590 72450
L72590 72510
" />
<path d="M73310 72790
L73370 72820
L73490 72820
L73540 72790
L73570 72740
L73570 72710
L73540 72650
L73490 72620
L73400 72620
L73340 72590
L73310 72540
L73310 72510
L73340 72450
L73400 72420
L73490 72420
L73540 72450
" />
<path d="M74090 72790
L74030 72820
L73920 72820
L73860 72790
L73830 72770
L73800 72710
L73800 72540
L73830 72480
L73860 72450
L73920 72420
L74030 72420
L74090 72450
" />
<path d="M74340 72820
L74340 72220
" />
<path d="M74600 72820
L74600 72510
L74570 72450
L74510 72420
L74430 72420
L74370 72450
L74340 72480
" />
<path d="M75110 72790
L75050 72820
L74940 72820
L74880 72790
L74850 72740
L74850 72510
L74880 72450
L74940 72420
L75050 72420
L75110 72450
L75140 72510
L75140 72570
L74850 72620
" />
<path d="M75390 72820
L75390 72420
" />
<path d="M75390 72480
L75420 72450
L75480 72420
L75560 72420
L75620 72450
L75650 72510
L75650 72820
" />
<path d="M75650 72510
L75680 72450
L75740 72420
L75820 72420
L75880 72450
L75910 72510
L75910 72820
" />
<path d="M76450 72820
L76450 72510
L76420 72450
L76360 72420
L76250 72420
L76190 72450
" />
<path d="M76450 72790
L76390 72820
L76250 72820
L76190 72790
L76160 72740
L76160 72680
L76190 72620
L76250 72590
L76390 72590
L76450 72570
" />
<path d="M76650 72420
L76880 72420
" />
<path d="M76730 72220
L76730 72740
L76760 72790
L76820 72820
L76880 72820
" />
<path d="M77070 72820
L77070 72420
" />
<path d="M77070 72220
L77040 72250
L77070 72280
L77100 72250
L77070 72220
L77070 72280
" />
<path d="M77620 72790
L77560 72820
L77450 72820
L77390 72790
L77360 72770
L77330 72710
L77330 72540
L77360 72480
L77390 72450
L77450 72420
L77560 72420
L77620 72450
" />
<path d="M77840 72790
L77900 72820
L78020 72820
L78070 72790
L78100 72740
L78100 72710
L78070 72650
L78020 72620
L77930 72620
L77870 72590
L77840 72540
L77840 72510
L77870 72450
L77930 72420
L78020 72420
L78070 72450
" />
<path d="M78360 72770
L78390 72790
L78360 72820
L78330 72790
L78360 72770
L78360 72820
" />
<path d="M78620 72790
L78680 72820
L78800 72820
L78850 72790
L78880 72740
L78880 72710
L78850 72650
L78800 72620
L78710 72620
L78650 72590
L78620 72540
L78620 72510
L78650 72450
L78710 72420
L78800 72420
L78850 72450
" />
<path d="M79400 72790
L79340 72820
L79230 72820
L79170 72790
L79140 72770
L79110 72710
L79110 72540
L79140 72480
L79170 72450
L79230 72420
L79340 72420
L79400 72450
" />
<path d="M79650 72820
L79650 72220
" />
<path d="M79910 72820
L79910 72510
L79880 72450
L79820 72420
L79740 72420
L79680 72450
L79650 72480
" />
<path d="M70940 73990
L71030 74020
L71170 74020
L71230 73990
L71260 73970
L71290 73910
L71290 73850
L71260 73790
L71230 73770
L71170 73740
L71060 73710
L71000 73680
L70970 73650
L70940 73590
L70940 73540
L70970 73480
L71000 73450
L71060 73420
L71200 73420
L71290 73450
" />
<path d="M71540 74020
L71540 73420
" />
<path d="M71800 74020
L71800 73710
L71770 73650
L71710 73620
L71630 73620
L71570 73650
L71540 73680
" />
<path d="M72310 73990
L72250 74020
L72140 74020
L72080 73990
L72050 73940
L72050 73710
L72080 73650
L72140 73620
L72250 73620
L72310 73650
L72340 73710
L72340 73770
L72050 73820
" />
<path d="M72820 73990
L72760 74020
L72650 74020
L72590 73990
L72560 73940
L72560 73710
L72590 73650
L72650 73620
L72760 73620
L72820 73650
L72850 73710
L72850 73770
L72560 73820
" />
<path d="M73020 73620
L73250 73620
" />
<path d="M73100 73420
L73100 73940
L73130 73990
L73190 74020
L73250 74020
" />
<path d="M73440 73970
L73470 73990
L73440 74020
L73410 73990
L73440 73970
L73440 74020
" />
<path d="M73440 73650
L73470 73680
L73440 73710
L73410 73680
L73440 73650
L73440 73710
" />
<path d="M74620 73390
L74110 74170
" />
<path d="M70230 71980
L70230 77980
" />
<path d="M70230 71980
L112230 71980
" />
<path d="M70230 71980
L112230 71980
" />
<path d="M70230 74380
L112230 74380
" />
<path d="M103430 75580
L103430 77980
" />
<path d="M70230 76780
L112230 76780
" />
<path d="M70230 75580
L112230 75580
" />
<path d="M76830 75580
L76830 76780
" />
</g>
<g style="fill:#A00000; fill-opacity:0.0; 
stroke:#A00000; stroke-width:0; stroke-opacity:1; 
stroke-linecap:round; stroke-linejoin:round;">
</g>
<g style="fill:#A00000; fill-opacity:0.0; 
stroke:#A00000; stroke-width:120; stroke-opacity:1; 
stroke-linecap:round; stroke-linejoin:round;">
<rect x="55500" y="31600" width="3000" height="800" rx="0" />
</g>
<g style="fill:#A00000; fill-opacity:0.0; 
stroke:#A00000; stroke-width:60; stroke-opacity:1; 
stroke-linecap:round; stroke-linejoin:round;">
<path d="M55500 32000
L54500 32000
" />
</g>
<g style="fill:#00A0A0; fill-opacity:0.0; 
stroke:#00A0A0; stroke-width:60; stroke-opacity:1; 
stroke-linecap:round; stroke-linejoin:round;">
</g>
<g style="fill:#A00000; fill-opacity:0.0; 
stroke:#A00000; stroke-width:60; stroke-opacity:1; 
stroke-linecap:round; stroke-linejoin:round;">
<path d="M58500 32000
L59500 32000
" />
</g>
<g style="fill:#00A0A0; fill-opacity:0.0; 
stroke:#00A0A0; stroke-width:60; stroke-opacity:1; 
stroke-linecap:round; stroke-linejoin:round;">
<path d="M56930 31390
L56800 31200
" />
<path d="M56710 31390
L56710 30990
L56860 30990
L56900 31010
L56910 31030
L56930 31070
L56930 31130
L56910 31160
L56900 31180
L56860 31200
L56710 31200
" />
<path d="M57090 31030
L57110 31010
L57140 30990
L57240 30990
L57280 31010
L57300 31030
L57310 31070
L57310 31110
L57300 31160
L57070 31390
L57310 31390
" />
<path d="M56870 32120
L56650 32120
" />
<path d="M56760 32120
L56760 31720
L56720 31780
L56680 31820
L56650 31840
" />
<path d="M57050 32120
L57050 31720
L57180 32010
L57310 31720
L57310 32120
" />
</g>
<g style="fill:#00A0A0; fill-opacity:0.0; 
stroke:#00A0A0; stroke-width:0; stroke-opacity:1; 
stroke-linecap:round; stroke-linejoin:round;">
</g>
<g style="fill:#A00000; fill-opacity:0.0; 
stroke:#A00000; stroke-width:120; stroke-opacity:1; 
stroke-linecap:round; stroke-linejoin:round;">
<rect x="59100" y="40500" width="800" height="3000" rx="0" />
</g>
<g style="fill:#A00000; fill-opacity:0.0; 
stroke:#A00000; stroke-width:60; stroke-opacity:1; 
stroke-linecap:round; stroke-linejoin:round;">
<path d="M59500 40500
L59500 39500
" />
</g>
<g style="fill:#00A0A0; fill-opacity:0.0; 
stroke:#00A0A0; stroke-width:60; stroke-opacity:1; 
stroke-linecap:round; stroke-linejoin:round;">
</g>
<g style="fill:#A00000; fill-opacity:0.0; 
stroke:#A00000; stroke-width:60; stroke-opacity:1; 
stroke-linecap:round; stroke-linejoin:round;">
<path d="M59500 43500
L59500 44500
" />
</g>
<g style="fill:#00A0A0; fill-opacity:0.0; 
stroke:#00A0A0; stroke-width:60; stroke-opacity:1; 
stroke-linecap:round; stroke-linejoin:round;">
<path d="M60430 42150
L60240 42280
" />
<path d="M60430 42370
L60030 42370
L60030 42220
L60050 42180
L60070 42170
L60110 42150
L60170 42150
L60200 42170
L60220 42180
L60240 42220
L60240 42370
" />
<path d="M60030 41960
L60110 41990
" />
<path d="M60430 41580
L60430 41800
" />
<path d="M60430 41690
L60030 41690
L60090 41730
L60130 41770
L60150 41800
" />
<path d="M59700 42450
L59700 42370
L59680 42330
L59660 42310
L59610 42270
L59530 42260
L59380 42260
L59340 42270
L59320 42290
L59300 42330
L59300 42410
L59320 42450
L59340 42460
L59380 42480
L59470 42480
L59510 42460
L59530 42450
L59550 42410
L59550 42330
L59530 42290
L59510 42270
L59470 42260
" />
<path d="M59700 41880
L59700 42100
" />
<path d="M59700 41990
L59300 41990
L59360 42030
L59400 42070
L59420 42100
" />
<path d="M59300 41630
L59300 41590
L59320 41550
L59340 41530
L59380 41510
L59450 41500
L59550 41500
L59630 41510
L59660 41530
L59680 41550
L59700 41590
L59700 41630
L59680 41670
L59660 41690
L59630 41700
L59550 41720
L59450 41720
L59380 41700
L59340 41690
L59320 41670
L59300 41630
" />
</g>
<g style="fill:#00A0A0; fill-opacity:0.0; 
stroke:#00A0A0; stroke-width:0; stroke-opacity:1; 
stroke-linecap:round; stroke-linejoin:round;">
</g>
<g style="fill:#A00000; fill-opacity:0.0; 
stroke:#A00000; stroke-width:120; stroke-opacity:1; 
stroke-linecap:round; stroke-linejoin:round;">
<rect x="43000" y="25100" width="3000" height="800" rx="0" />
</g>
<g style="fill:#A00000; fill-opacity:0.0; 
stroke:#A00000; stroke-width:60; stroke-opacity:1; 
stroke-linecap:round; stroke-linejoin:round;">
<path d="M46000 25500
L47000 25500
" />
</g>
<g style="fill:#00A0A0; fill-opacity:0.0; 
stroke:#00A0A0; stroke-width:60; stroke-opacity:1; 
stroke-linecap:round; stroke-linejoin:round;">
</g>
<g style="fill:#A00000; fill-opacity:0.0; 
stroke:#A00000; stroke-width:60; stroke-opacity:1; 
stroke-linecap:round; stroke-linejoin:round;">
<path d="M43000 25500
L42000 25500
" />
</g>
<g style="fill:#00A0A0; fill-opacity:0.0; 
stroke:#00A0A0; stroke-width:60; stroke-opacity:1; 
stroke-linecap:round; stroke-linejoin:round;">
<path d="M44430 26430
L44300 26240
" />
<path d="M44210 26430
L44210 26030
L44360 26030
L44400 26050
L44410 26070
L44430 26110
L44430 26170
L44410 26200
L44400 26220
L44360 26240
L44210 26240
" />
<path d="M44810 26430
L44590 26430
" />
<path d="M44700 26430
L44700 26030
L44660 26090
L44620 26130
L44590 26150
" />
<path d="M44390 25700
L44170 25700
" />
<path d="M44280 25700
L44280 25300
L44240 25360
L44200 25400
L44170 25420
" />
<path d="M44570 25700
L44570 25300
L44700 25590
L44830 25300
L44830 25700
" />
</g>
<g style="fill:#A00000; fill-opacity:0.0; 
stroke:#A00000; stroke-width:60; stroke-opacity:1; 
stroke-linecap:round; stroke-linejoin:round;">
<path d="M29130 32640
L29330 33240
L29530 32640
" />
<path d="M29580 33300
L30040 33300
" />
<path d="M30380 32930
L30470 32960
L30500 32990
L30530 33040
L30530 33130
L30500 33190
L30470 33210
L30410 33240
L30180 33240
L30180 32640
L30380 32640
L30440 32670
L30470 32700
L30500 32760
L30500 32810
L30470 32870
L30440 32900
L30380 32930
L30180 32930
" />
</g>
<g style="fill:#A00000; fill-opacity:0.0; 
stroke:#A00000; stroke-width:100; stroke-opacity:1; 
stroke-linecap:round; stroke-linejoin:round;">
<polyline fill="none;"
points="31000,33000
30700,32430
28840,32430
28840,33000
28840,33570
30700,33570
31000,33000
" /> 
</g>
<g style="fill:#A00000; fill-opacity:0.0; 
stroke:#A00000; stroke-width:60; stroke-opacity:1; 
stroke-linecap:round; stroke-linejoin:round;">
<path d="M29720 31240
L29720 30640
L29950 30640
L30010 30670
L30040 30700
L30070 30760
L30070 30840
L30040 30900
L30010 30930
L29950 30960
L29720 30960
" />
<path d="M30320 31240
L30320 30840
" />
<path d="M30320 30960
L30350 30900
L30380 30870
L30440 30840
L30490 30840
" />
<path d="M30780 31240
L30720 31210
L30690 31190
L30660 31130
L30660 30960
L30690 30900
L30720 30870
L30780 30840
L30860 30840
L30920 30870
L30950 30900
L30980 30960
L30980 31130
L30950 31190
L30920 31210
L30860 31240
L30780 31240
" />
<path d="M31230 31240
L31230 30640
" />
<path d="M31230 30870
L31290 30840
L31400 30840
L31460 30870
L31490 30900
L31520 30960
L31520 31130
L31490 31190
L31460 31210
L31400 31240
L31290 31240
L31230 31210
" />
<path d="M32000 31210
L31940 31240
L31830 31240
L31770 31210
L31740 31160
L31740 30930
L31770 30870
L31830 30840
L31940 30840
L32000 30870
L32030 30930
L32030 30990
L31740 31040
" />
</g>
<g style="fill:#A00000; fill-opacity:0.0; 
stroke:#A00000; stroke-width:100; stroke-opacity:1; 
stroke-linecap:round; stroke-linejoin:round;">
<polyline fill="none;"
points="32500,31000
32200,30430
29350,30430
29350,31000
29350,31570
32200,31570
32500,31000
" /> 
</g>
<g style="fill:#A00000; fill-opacity:0.0; 
stroke:#A00000; stroke-width:60; stroke-opacity:1; 
stroke-linecap:round; stroke-linejoin:round;">
</g>
<g style="fill:#00A000; fill-opacity:0.0; 
stroke:#00A000; stroke-width:60; stroke-opacity:1; 
stroke-linecap:round; stroke-linejoin:round;">
<path d="M47000 25500
L49500 25500
" />
<path d="M31000 33000
L41000 33000
" />
</g>
<g style="fill:#00A000; fill-opacity:0.0; 
stroke:#00A000; stroke-width:0; stroke-opacity:1; 
stroke-linecap:round; stroke-linejoin:round;">
</g>
<g style="fill:#00A000; fill-opacity:1.0; 
stroke:#00A000; stroke-width:100; stroke-opacity:1; 
stroke-linecap:round; stroke-linejoin:round;">
<circle cx="39500" cy="31000" r="160" /> 
</g>
<g style="fill:#00A000; fill-opacity:1.0; 
stroke:#00A000; stroke-width:0; stroke-opacity:1; 
stroke-linecap:round; stroke-linejoin:round;">
</g>
<g style="fill:#A00000; fill-opacity:0.0; 
stroke:#A00000; stroke-width:120; stroke-opacity:1; 
stroke-linecap:round; stroke-linejoin:round;">
<rect x="51000" y="36600" width="3000" height="800" rx="0" />
</g>
<g style="fill:#A00000; fill-opacity:0.0; 
stroke:#A00000; stroke-width:60; stroke-opacity:1; 
stroke-linecap:round; stroke-linejoin:round;">
<path d="M51000 37000
L50000 37000
" />
</g>
<g style="fill:#00A0A0; fill-opacity:0.0; 
stroke:#00A0A0; stroke-width:60; stroke-opacity:1; 
stroke-linecap:round; stroke-linejoin:round;">
</g>
<g style="fill:#A00000; fill-opacity:0.0; 
stroke:#A00000; stroke-width:60; stroke-opacity:1; 
stroke-linecap:round; stroke-linejoin:round;">
<path d="M54000 37000
L55000 37000
" />
</g>
<g style="fill:#00A0A0; fill-opacity:0.0; 
stroke:#00A0A0; stroke-width:60; stroke-opacity:1; 
stroke-linecap:round; stroke-linejoin:round;">
<path d="M51140 36390
L51010 36200
" />
<path d="M50920 36390
L50920 35990
L51070 35990
L51110 36010
L51120 36030
L51140 36070
L51140 36130
L51120 36160
L51110 36180
L51070 36200
L50920 36200
" />
<path d="M51430 36540
L51410 36530
L51370 36470
L51350 36430
L51330 36370
L51320 36280
L51320 36200
L51330 36110
L51350 36050
L51370 36010
L51410 35950
L51430 35930
" />
<path d="M51790 36390
L51570 36390
" />
<path d="M51680 36390
L51680 35990
L51640 36050
L51600 36090
L51570 36110
" />
<path d="M51970 36240
L52270 36240
" />
<path d="M52670 36390
L52450 36390
" />
<path d="M52560 36390
L52560 35990
L52520 36050
L52480 36090
L52450 36110
" />
<path d="M53130 35970
L52790 36490
" />
<path d="M53270 36130
L53270 36390
" />
<path d="M53270 36160
L53280 36140
L53320 36130
L53380 36130
L53420 36140
L53440 36180
L53440 36390
" />
<path d="M53590 36540
L53610 36530
L53640 36470
L53660 36430
L53680 36370
L53700 36280
L53700 36200
L53680 36110
L53660 36050
L53640 36010
L53610 35950
L53590 35930
" />
<path d="M54100 36390
L53880 36390
" />
<path d="M53990 36390
L53990 35990
L53950 36050
L53910 36090
L53880 36110
" />
<path d="M52370 37120
L52150 37120
" />
<path d="M52260 37120
L52260 36720
L52220 36780
L52180 36820
L52150 36840
" />
<path d="M52550 37120
L52550 36720
L52680 37010
L52810 36720
L52810 37120
" />
</g>
<g style="fill:#00A000; fill-opacity:0.0; 
stroke:#00A000; stroke-width:60; stroke-opacity:1; 
stroke-linecap:round; stroke-linejoin:round;">
<path d="M39500 33000
L39500 44500
" />
</g>
<g style="fill:#00A000; fill-opacity:0.0; 
stroke:#00A000; stroke-width:0; stroke-opacity:1; 
stroke-linecap:round; stroke-linejoin:round;">
</g>
<g style="fill:#00A000; fill-opacity:1.0; 
stroke:#00A000; stroke-width:100; stroke-opacity:1; 
stroke-linecap:round; stroke-linejoin:round;">
<circle cx="39500" cy="33000" r="160" /> 
</g>
<g style="fill:#00A000; fill-opacity:1.0; 
stroke:#00A000; stroke-width:0; stroke-opacity:1; 
stroke-linecap:round; stroke-linejoin:round;">
</g>
<g style="fill:#A00000; fill-opacity:0.0; 
stroke:#A00000; stroke-width:120; stroke-opacity:1; 
stroke-linecap:round; stroke-linejoin:round;">
<rect x="62600" y="40500" width="800" height="3000" rx="0" />
</g>
<g style="fill:#A00000; fill-opacity:0.0; 
stroke:#A00000; stroke-width:60; stroke-opacity:1; 
stroke-linecap:round; stroke-linejoin:round;">
<path d="M63000 40500
L63000 39500
" />
</g>
<g style="fill:#00A0A0; fill-opacity:0.0; 
stroke:#00A0A0; stroke-width:60; stroke-opacity:1; 
stroke-linecap:round; stroke-linejoin:round;">
</g>
<g style="fill:#A00000; fill-opacity:0.0; 
stroke:#A00000; stroke-width:60; stroke-opacity:1; 
stroke-linecap:round; stroke-linejoin:round;">
<path d="M63000 43500
L63000 44500
" />
</g>
<g style="fill:#00A0A0; fill-opacity:0.0; 
stroke:#00A0A0; stroke-width:60; stroke-opacity:1; 
stroke-linecap:round; stroke-linejoin:round;">
<path d="M63930 42460
L63740 42590
" />
<path d="M63930 42680
L63530 42680
L63530 42530
L63550 42490
L63570 42480
L63610 42460
L63670 42460
L63700 42480
L63720 42490
L63740 42530
L63740 42680
" />
<path d="M63510 42000
L64030 42340
" />
<path d="M63670 41860
L63930 41860
" />
<path d="M63700 41860
L63680 41850
L63670 41810
L63670 41750
L63680 41710
L63720 41690
L63930 41690
" />
<path d="M63930 41300
L63930 41520
" />
<path d="M63930 41410
L63530 41410
L63590 41450
L63630 41490
L63650 41520
" />
<path d="M63200 42450
L63200 42370
L63180 42330
L63160 42310
L63110 42270
L63030 42260
L62880 42260
L62840 42270
L62820 42290
L62800 42330
L62800 42410
L62820 42450
L62840 42460
L62880 42480
L62970 42480
L63010 42460
L63030 42450
L63050 42410
L63050 42330
L63030 42290
L63010 42270
L62970 42260
" />
<path d="M63200 41880
L63200 42100
" />
<path d="M63200 41990
L62800 41990
L62860 42030
L62900 42070
L62920 42100
" />
<path d="M62800 41630
L62800 41590
L62820 41550
L62840 41530
L62880 41510
L62950 41500
L63050 41500
L63130 41510
L63160 41530
L63180 41550
L63200 41590
L63200 41630
L63180 41670
L63160 41690
L63130 41700
L63050 41720
L62950 41720
L62880 41700
L62840 41690
L62820 41670
L62800 41630
" />
</g>
<g style="fill:#00A0A0; fill-opacity:0.0; 
stroke:#00A0A0; stroke-width:0; stroke-opacity:1; 
stroke-linecap:round; stroke-linejoin:round;">
</g>
<g style="fill:#00A000; fill-opacity:1.0; 
stroke:#00A000; stroke-width:100; stroke-opacity:1; 
stroke-linecap:round; stroke-linejoin:round;">
<circle cx="63000" cy="37000" r="160" /> 
</g>
<g style="fill:#00A000; fill-opacity:1.0; 
stroke:#00A000; stroke-width:60; stroke-opacity:1; 
stroke-linecap:round; stroke-linejoin:round;">
<path d="M59500 32000
L59500 39500
" />
</g>
<g style="fill:#00A000; fill-opacity:1.0; 
stroke:#00A000; stroke-width:0; stroke-opacity:1; 
stroke-linecap:round; stroke-linejoin:round;">
</g>
<g style="fill:#00A000; fill-opacity:1.0; 
stroke:#00A000; stroke-width:100; stroke-opacity:1; 
stroke-linecap:round; stroke-linejoin:round;">
<circle cx="59500" cy="35000" r="160" /> 
</g>
<g style="fill:#00A000; fill-opacity:1.0; 
stroke:#00A000; stroke-width:0; stroke-opacity:1; 
stroke-linecap:round; stroke-linejoin:round;">
</g>
<g style="fill:#A00000; fill-opacity:0.0; 
stroke:#A00000; stroke-width:120; stroke-opacity:1; 
stroke-linecap:round; stroke-linejoin:round;">
<rect x="67500" y="29100" width="3000" height="800" rx="0" />
</g>
<g style="fill:#A00000; fill-opacity:0.0; 
stroke:#A00000; stroke-width:60; stroke-opacity:1; 
stroke-linecap:round; stroke-linejoin:round;">
<path d="M67500 29500
L66500 29500
" />
</g>
<g style="fill:#00A0A0; fill-opacity:0.0; 
stroke:#00A0A0; stroke-width:60; stroke-opacity:1; 
stroke-linecap:round; stroke-linejoin:round;">
</g>
<g style="fill:#A00000; fill-opacity:0.0; 
stroke:#A00000; stroke-width:60; stroke-opacity:1; 
stroke-linecap:round; stroke-linejoin:round;">
<path d="M70500 29500
L71500 29500
" />
</g>
<g style="fill:#00A0A0; fill-opacity:0.0; 
stroke:#00A0A0; stroke-width:60; stroke-opacity:1; 
stroke-linecap:round; stroke-linejoin:round;">
<path d="M68930 28890
L68800 28700
" />
<path d="M68710 28890
L68710 28490
L68860 28490
L68900 28510
L68910 28530
L68930 28570
L68930 28630
L68910 28660
L68900 28680
L68860 28700
L68710 28700
" />
<path d="M69070 28490
L69310 28490
L69180 28640
L69240 28640
L69280 28660
L69300 28680
L69310 28720
L69310 28820
L69300 28850
L69280 28870
L69240 28890
L69120 28890
L69090 28870
L69070 28850
" />
<path d="M68870 29620
L68650 29620
" />
<path d="M68760 29620
L68760 29220
L68720 29280
L68680 29320
L68650 29340
" />
<path d="M69050 29620
L69050 29220
L69180 29510
L69310 29220
L69310 29620
" />
</g>
<g style="fill:#00A000; fill-opacity:0.0; 
stroke:#00A000; stroke-width:60; stroke-opacity:1; 
stroke-linecap:round; stroke-linejoin:round;">
<path d="M63000 29500
L66500 29500
" />
<path d="M42000 25500
L39500 25500
" />
<path d="M32500 31000
L41000 31000
" />
<path d="M39500 25500
L39500 31000
" />
</g>
<g style="fill:#00A000; fill-opacity:0.0; 
stroke:#00A000; stroke-width:0; stroke-opacity:1; 
stroke-linecap:round; stroke-linejoin:round;">
</g>
<g style="fill:#A00000; fill-opacity:0.0; 
stroke:#A00000; stroke-width:60; stroke-opacity:1; 
stroke-linecap:round; stroke-linejoin:round;">
<circle cx="36500" cy="44500" r="1500" /> 
<polyline fill="none;"
points="35500,44500
35000,44500
" /> 
<polyline fill="none;"
points="35500,43600
35500,45390
" /> 
<polyline fill="none;"
points="36190,44000
36190,45000
" /> 
<polyline fill="none;"
points="36890,43600
36890,45390
" /> 
<polyline fill="none;"
points="37500,44500
38000,44500
" /> 
<polyline fill="none;"
points="37500,44000
37500,45000
" /> 
<path d="M35000 44500
L33500 44500
" />
</g>
<g style="fill:#00A0A0; fill-opacity:0.0; 
stroke:#00A0A0; stroke-width:60; stroke-opacity:1; 
stroke-linecap:round; stroke-linejoin:round;">
<path d="M34060 44160
L34440 44160
" />
<path d="M34250 44350
L34250 43970
" />
</g>
<g style="fill:#A00000; fill-opacity:0.0; 
stroke:#A00000; stroke-width:60; stroke-opacity:1; 
stroke-linecap:round; stroke-linejoin:round;">
<path d="M34390 45050
L34110 45050
" />
<path d="M34250 45050
L34250 44550
L34200 44620
L34150 44670
L34110 44700
" />
<path d="M38000 44500
L39500 44500
" />
</g>
<g style="fill:#00A0A0; fill-opacity:0.0; 
stroke:#00A0A0; stroke-width:60; stroke-opacity:1; 
stroke-linecap:round; stroke-linejoin:round;">
<path d="M38560 44160
L38940 44160
" />
</g>
<g style="fill:#A00000; fill-opacity:0.0; 
stroke:#A00000; stroke-width:60; stroke-opacity:1; 
stroke-linecap:round; stroke-linejoin:round;">
<path d="M38610 44600
L38630 44580
L38680 44550
L38800 44550
L38840 44580
L38870 44600
L38890 44650
L38890 44700
L38870 44770
L38580 45050
L38890 45050
" />
</g>
<g style="fill:#00A0A0; fill-opacity:0.0; 
stroke:#00A0A0; stroke-width:60; stroke-opacity:1; 
stroke-linecap:round; stroke-linejoin:round;">
<path d="M35040 42410
L34870 42410
" />
<path d="M34870 42670
L34870 42170
L35110 42170
" />
<path d="M35370 42670
L35320 42650
L35300 42600
L35300 42170
" />
<path d="M35630 42670
L35580 42650
L35560 42620
L35540 42580
L35540 42430
L35560 42390
L35580 42360
L35630 42340
L35700 42340
L35750 42360
L35770 42390
L35800 42430
L35800 42580
L35770 42620
L35750 42650
L35700 42670
L35630 42670
" />
<path d="M36220 42670
L36220 42410
L36200 42360
L36150 42340
L36060 42340
L36010 42360
" />
<path d="M36220 42650
L36180 42670
L36060 42670
L36010 42650
L35990 42600
L35990 42550
L36010 42510
L36060 42480
L36180 42480
L36220 42460
" />
<path d="M36390 42340
L36580 42340
" />
<path d="M36460 42170
L36460 42600
L36480 42650
L36530 42670
L36580 42670
" />
<path d="M36750 42670
L36750 42340
" />
<path d="M36750 42170
L36730 42200
L36750 42220
L36770 42200
L36750 42170
L36750 42220
" />
<path d="M36990 42340
L36990 42670
" />
<path d="M36990 42390
L37010 42360
L37060 42340
L37130 42340
L37180 42360
L37200 42410
L37200 42670
" />
<path d="M37650 42340
L37650 42740
L37630 42790
L37610 42820
L37560 42840
L37490 42840
L37440 42820
" />
<path d="M37650 42650
L37610 42670
L37510 42670
L37460 42650
L37440 42620
L37420 42580
L37420 42430
L37440 42390
L37460 42360
L37510 42340
L37610 42340
L37650 42360
" />
<path d="M38150 42670
L37870 42670
" />
<path d="M38010 42670
L38010 42170
L37960 42240
L37910 42290
L37870 42320
" />
<path d="M36400 46570
L36120 46570
" />
<path d="M36260 46570
L36260 46070
L36210 46140
L36160 46190
L36120 46220
" />
<path d="M36600 46120
L36620 46100
L36670 46070
L36790 46070
L36830 46100
L36860 46120
L36880 46170
L36880 46220
L36860 46290
L36570 46570
L36880 46570
" />
</g>
<g style="fill:#00A0A0; fill-opacity:0.0; 
stroke:#00A0A0; stroke-width:0; stroke-opacity:1; 
stroke-linecap:round; stroke-linejoin:round;">
</g>
<g style="fill:#A00000; fill-opacity:0.0; 
stroke:#A00000; stroke-width:60; stroke-opacity:1; 
stroke-linecap:round; stroke-linejoin:round;">
<circle cx="42500" cy="44500" r="1500" /> 
<polyline fill="none;"
points="41500,44500
41000,44500
" /> 
<polyline fill="none;"
points="41500,43600
41500,45390
" /> 
<polyline fill="none;"
points="42190,44000
42190,45000
" /> 
<polyline fill="none;"
points="42890,43600
42890,45390
" /> 
<polyline fill="none;"
points="43500,44500
44000,44500
" /> 
<polyline fill="none;"
points="43500,44000
43500,45000
" /> 
<path d="M41000 44500
L39500 44500
" />
</g>
<g style="fill:#00A0A0; fill-opacity:0.0; 
stroke:#00A0A0; stroke-width:60; stroke-opacity:1; 
stroke-linecap:round; stroke-linejoin:round;">
<path d="M40060 44160
L40440 44160
" />
<path d="M40250 44350
L40250 43970
" />
</g>
<g style="fill:#A00000; fill-opacity:0.0; 
stroke:#A00000; stroke-width:60; stroke-opacity:1; 
stroke-linecap:round; stroke-linejoin:round;">
<path d="M40390 45050
L40110 45050
" />
<path d="M40250 45050
L40250 44550
L40200 44620
L40150 44670
L40110 44700
" />
<path d="M44000 44500
L45500 44500
" />
</g>
<g style="fill:#00A0A0; fill-opacity:0.0; 
stroke:#00A0A0; stroke-width:60; stroke-opacity:1; 
stroke-linecap:round; stroke-linejoin:round;">
<path d="M44560 44160
L44940 44160
" />
</g>
<g style="fill:#A00000; fill-opacity:0.0; 
stroke:#A00000; stroke-width:60; stroke-opacity:1; 
stroke-linecap:round; stroke-linejoin:round;">
<path d="M44610 44600
L44630 44580
L44680 44550
L44800 44550
L44840 44580
L44870 44600
L44890 44650
L44890 44700
L44870 44770
L44580 45050
L44890 45050
" />
</g>
<g style="fill:#00A0A0; fill-opacity:0.0; 
stroke:#00A0A0; stroke-width:60; stroke-opacity:1; 
stroke-linecap:round; stroke-linejoin:round;">
<path d="M41040 42410
L40870 42410
" />
<path d="M40870 42670
L40870 42170
L41110 42170
" />
<path d="M41370 42670
L41320 42650
L41300 42600
L41300 42170
" />
<path d="M41630 42670
L41580 42650
L41560 42620
L41540 42580
L41540 42430
L41560 42390
L41580 42360
L41630 42340
L41700 42340
L41750 42360
L41770 42390
L41800 42430
L41800 42580
L41770 42620
L41750 42650
L41700 42670
L41630 42670
" />
<path d="M42220 42670
L42220 42410
L42200 42360
L42150 42340
L42060 42340
L42010 42360
" />
<path d="M42220 42650
L42180 42670
L42060 42670
L42010 42650
L41990 42600
L41990 42550
L42010 42510
L42060 42480
L42180 42480
L42220 42460
" />
<path d="M42390 42340
L42580 42340
" />
<path d="M42460 42170
L42460 42600
L42480 42650
L42530 42670
L42580 42670
" />
<path d="M42750 42670
L42750 42340
" />
<path d="M42750 42170
L42730 42200
L42750 42220
L42770 42200
L42750 42170
L42750 42220
" />
<path d="M42990 42340
L42990 42670
" />
<path d="M42990 42390
L43010 42360
L43060 42340
L43130 42340
L43180 42360
L43200 42410
L43200 42670
" />
<path d="M43650 42340
L43650 42740
L43630 42790
L43610 42820
L43560 42840
L43490 42840
L43440 42820
" />
<path d="M43650 42650
L43610 42670
L43510 42670
L43460 42650
L43440 42620
L43420 42580
L43420 42430
L43440 42390
L43460 42360
L43510 42340
L43610 42340
L43650 42360
" />
<path d="M43870 42220
L43890 42200
L43940 42170
L44060 42170
L44100 42200
L44130 42220
L44150 42270
L44150 42320
L44130 42390
L43840 42670
L44150 42670
" />
<path d="M42400 46570
L42120 46570
" />
<path d="M42260 46570
L42260 46070
L42210 46140
L42160 46190
L42120 46220
" />
<path d="M42600 46120
L42620 46100
L42670 46070
L42790 46070
L42830 46100
L42860 46120
L42880 46170
L42880 46220
L42860 46290
L42570 46570
L42880 46570
" />
</g>
<g style="fill:#00A0A0; fill-opacity:0.0; 
stroke:#00A0A0; stroke-width:0; stroke-opacity:1; 
stroke-linecap:round; stroke-linejoin:round;">
</g>
<g style="fill:#00A000; fill-opacity:1.0; 
stroke:#00A000; stroke-width:100; stroke-opacity:1; 
stroke-linecap:round; stroke-linejoin:round;">
<circle cx="39500" cy="44500" r="160" /> 
</g>
<g style="fill:#00A000; fill-opacity:1.0; 
stroke:#00A000; stroke-width:0; stroke-opacity:1; 
stroke-linecap:round; stroke-linejoin:round;">
</g>
<g style="fill:#A00000; fill-opacity:0.0; 
stroke:#A00000; stroke-width:60; stroke-opacity:1; 
stroke-linecap:round; stroke-linejoin:round;">
<circle cx="74500" cy="51000" r="1500" /> 
<polyline fill="none;"
points="73500,51000
73000,51000
" /> 
<polyline fill="none;"
points="73500,50100
73500,51890
" /> 
<polyline fill="none;"
points="74190,50500
74190,51500
" /> 
<polyline fill="none;"
points="74890,50100
74890,51890
" /> 
<polyline fill="none;"
points="75500,51000
76000,51000
" /> 
<polyline fill="none;"
points="75500,50500
75500,51500
" /> 
<path d="M73000 51000
L71500 51000
" />
</g>
<g style="fill:#00A0A0; fill-opacity:0.0; 
stroke:#00A0A0; stroke-width:60; stroke-opacity:1; 
stroke-linecap:round; stroke-linejoin:round;">
<path d="M72060 50660
L72440 50660
" />
<path d="M72250 50850
L72250 50470
" />
</g>
<g style="fill:#A00000; fill-opacity:0.0; 
stroke:#A00000; stroke-width:60; stroke-opacity:1; 
stroke-linecap:round; stroke-linejoin:round;">
<path d="M72390 51550
L72110 51550
" />
<path d="M72250 51550
L72250 51050
L72200 51120
L72150 51170
L72110 51200
" />
<path d="M76000 51000
L77500 51000
" />
</g>
<g style="fill:#00A0A0; fill-opacity:0.0; 
stroke:#00A0A0; stroke-width:60; stroke-opacity:1; 
stroke-linecap:round; stroke-linejoin:round;">
<path d="M76560 50660
L76940 50660
" />
</g>
<g style="fill:#A00000; fill-opacity:0.0; 
stroke:#A00000; stroke-width:60; stroke-opacity:1; 
stroke-linecap:round; stroke-linejoin:round;">
<path d="M76610 51100
L76630 51080
L76680 51050
L76800 51050
L76840 51080
L76870 51100
L76890 51150
L76890 51200
L76870 51270
L76580 51550
L76890 51550
" />
</g>
<g style="fill:#00A0A0; fill-opacity:0.0; 
stroke:#00A0A0; stroke-width:60; stroke-opacity:1; 
stroke-linecap:round; stroke-linejoin:round;">
<path d="M73130 49150
L73200 49170
L73320 49170
L73360 49150
L73390 49120
L73410 49080
L73410 49030
L73390 48980
L73360 48960
L73320 48930
L73220 48910
L73170 48890
L73150 48860
L73130 48820
L73130 48770
L73150 48720
L73170 48700
L73220 48670
L73340 48670
L73410 48700
" />
<path d="M73840 48840
L73840 49170
" />
<path d="M73630 48840
L73630 49100
L73650 49150
L73700 49170
L73770 49170
L73820 49150
L73840 49120
" />
<path d="M74080 48840
L74080 49340
" />
<path d="M74080 48860
L74130 48840
L74220 48840
L74270 48860
L74290 48890
L74320 48930
L74320 49080
L74290 49120
L74270 49150
L74220 49170
L74130 49170
L74080 49150
" />
<path d="M74530 48840
L74530 49340
" />
<path d="M74530 48860
L74580 48840
L74670 48840
L74720 48860
L74740 48890
L74770 48930
L74770 49080
L74740 49120
L74720 49150
L74670 49170
L74580 49170
L74530 49150
" />
<path d="M75050 49170
L75000 49150
L74980 49100
L74980 48670
" />
<path d="M75190 48840
L75310 49170
" />
<path d="M75430 48840
L75310 49170
L75260 49290
L75240 49320
L75190 49340
" />
<path d="M75880 49170
L75600 49170
" />
<path d="M75740 49170
L75740 48670
L75690 48740
L75640 48790
L75600 48820
" />
<path d="M74400 53070
L74120 53070
" />
<path d="M74260 53070
L74260 52570
L74210 52640
L74160 52690
L74120 52720
" />
<path d="M74600 52620
L74620 52600
L74670 52570
L74790 52570
L74830 52600
L74860 52620
L74880 52670
L74880 52720
L74860 52790
L74570 53070
L74880 53070
" />
</g>
<g style="fill:#00A0A0; fill-opacity:0.0; 
stroke:#00A0A0; stroke-width:0; stroke-opacity:1; 
stroke-linecap:round; stroke-linejoin:round;">
</g>
<g style="fill:#A00000; fill-opacity:0.0; 
stroke:#A00000; stroke-width:60; stroke-opacity:1; 
stroke-linecap:round; stroke-linejoin:round;">
<circle cx="80500" cy="51000" r="1500" /> 
<polyline fill="none;"
points="79500,51000
79000,51000
" /> 
<polyline fill="none;"
points="79500,50100
79500,51890
" /> 
<polyline fill="none;"
points="80190,50500
80190,51500
" /> 
<polyline fill="none;"
points="80890,50100
80890,51890
" /> 
<polyline fill="none;"
points="81500,51000
82000,51000
" /> 
<polyline fill="none;"
points="81500,50500
81500,51500
" /> 
<path d="M79000 51000
L77500 51000
" />
</g>
<g style="fill:#00A0A0; fill-opacity:0.0; 
stroke:#00A0A0; stroke-width:60; stroke-opacity:1; 
stroke-linecap:round; stroke-linejoin:round;">
<path d="M78060 50660
L78440 50660
" />
<path d="M78250 50850
L78250 50470
" />
</g>
<g style="fill:#A00000; fill-opacity:0.0; 
stroke:#A00000; stroke-width:60; stroke-opacity:1; 
stroke-linecap:round; stroke-linejoin:round;">
<path d="M78390 51550
L78110 51550
" />
<path d="M78250 51550
L78250 51050
L78200 51120
L78150 51170
L78110 51200
" />
<path d="M82000 51000
L83500 51000
" />
</g>
<g style="fill:#00A0A0; fill-opacity:0.0; 
stroke:#00A0A0; stroke-width:60; stroke-opacity:1; 
stroke-linecap:round; stroke-linejoin:round;">
<path d="M82560 50660
L82940 50660
" />
</g>
<g style="fill:#A00000; fill-opacity:0.0; 
stroke:#A00000; stroke-width:60; stroke-opacity:1; 
stroke-linecap:round; stroke-linejoin:round;">
<path d="M82610 51100
L82630 51080
L82680 51050
L82800 51050
L82840 51080
L82870 51100
L82890 51150
L82890 51200
L82870 51270
L82580 51550
L82890 51550
" />
</g>
<g style="fill:#00A0A0; fill-opacity:0.0; 
stroke:#00A0A0; stroke-width:60; stroke-opacity:1; 
stroke-linecap:round; stroke-linejoin:round;">
<path d="M79130 49150
L79200 49170
L79320 49170
L79360 49150
L79390 49120
L79410 49080
L79410 49030
L79390 48980
L79360 48960
L79320 48930
L79220 48910
L79170 48890
L79150 48860
L79130 48820
L79130 48770
L79150 48720
L79170 48700
L79220 48670
L79340 48670
L79410 48700
" />
<path d="M79840 48840
L79840 49170
" />
<path d="M79630 48840
L79630 49100
L79650 49150
L79700 49170
L79770 49170
L79820 49150
L79840 49120
" />
<path d="M80080 48840
L80080 49340
" />
<path d="M80080 48860
L80130 48840
L80220 48840
L80270 48860
L80290 48890
L80320 48930
L80320 49080
L80290 49120
L80270 49150
L80220 49170
L80130 49170
L80080 49150
" />
<path d="M80530 48840
L80530 49340
" />
<path d="M80530 48860
L80580 48840
L80670 48840
L80720 48860
L80740 48890
L80770 48930
L80770 49080
L80740 49120
L80720 49150
L80670 49170
L80580 49170
L80530 49150
" />
<path d="M81050 49170
L81000 49150
L80980 49100
L80980 48670
" />
<path d="M81190 48840
L81310 49170
" />
<path d="M81430 48840
L81310 49170
L81260 49290
L81240 49320
L81190 49340
" />
<path d="M81600 48720
L81620 48700
L81670 48670
L81790 48670
L81830 48700
L81860 48720
L81880 48770
L81880 48820
L81860 48890
L81570 49170
L81880 49170
" />
<path d="M80400 53070
L80120 53070
" />
<path d="M80260 53070
L80260 52570
L80210 52640
L80160 52690
L80120 52720
" />
<path d="M80600 52620
L80620 52600
L80670 52570
L80790 52570
L80830 52600
L80860 52620
L80880 52670
L80880 52720
L80860 52790
L80570 53070
L80880 53070
" />
</g>
<g style="fill:#00A0A0; fill-opacity:0.0; 
stroke:#00A0A0; stroke-width:0; stroke-opacity:1; 
stroke-linecap:round; stroke-linejoin:round;">
</g>
<g style="fill:#00A000; fill-opacity:1.0; 
stroke:#00A000; stroke-width:100; stroke-opacity:1; 
stroke-linecap:round; stroke-linejoin:round;">
<circle cx="77500" cy="51000" r="160" /> 
</g>
<g style="fill:#00A000; fill-opacity:1.0; 
stroke:#00A000; stroke-width:60; stroke-opacity:1; 
stroke-linecap:round; stroke-linejoin:round;">
<path d="M59500 46000
L77500 46000
" />
</g>
<g style="fill:#00A000; fill-opacity:1.0; 
stroke:#00A000; stroke-width:0; stroke-opacity:1; 
stroke-linecap:round; stroke-linejoin:round;">
</g>
<g style="fill:#00A000; fill-opacity:1.0; 
stroke:#00A000; stroke-width:100; stroke-opacity:1; 
stroke-linecap:round; stroke-linejoin:round;">
<circle cx="63000" cy="46000" r="160" /> 
</g>
<g style="fill:#00A000; fill-opacity:1.0; 
stroke:#00A000; stroke-width:60; stroke-opacity:1; 
stroke-linecap:round; stroke-linejoin:round;">
<path d="M59500 46000
L59500 44500
" />
<path d="M83500 31000
L83500 51000
" />
<path d="M73000 29500
L71500 29500
" />
<path d="M71500 51000
L67000 51000
" />
<path d="M48500 44500
L45500 44500
" />
<path d="M48500 27000
L48500 44500
" />
<path d="M33500 44500
L33500 36000
" />
<path d="M33500 36000
L45000 36000
" />
</g>
<g style="fill:#A00000; fill-opacity:0.0; 
stroke:#A00000; stroke-width:60; stroke-opacity:1; 
stroke-linecap:round; stroke-linejoin:round;">
<path d="M86700 35930
L86500 35930
" />
<path d="M86500 36240
L86500 35640
L86790 35640
" />
<path d="M87100 36240
L87040 36210
L87010 36160
L87010 35640
" />
<path d="M87320 36240
L87320 35840
" />
<path d="M87320 35640
L87290 35670
L87320 35700
L87350 35670
L87320 35640
L87320 35700
" />
<path d="M87870 35840
L87870 36330
L87840 36390
L87810 36410
L87760 36440
L87670 36440
L87610 36410
" />
<path d="M87870 36210
L87810 36240
L87700 36240
L87640 36210
L87610 36190
L87580 36130
L87580 35960
L87610 35900
L87640 35870
L87700 35840
L87810 35840
L87870 35870
" />
<path d="M88150 36240
L88150 35640
" />
<path d="M88410 36240
L88410 35930
L88380 35870
L88320 35840
L88240 35840
L88180 35870
L88150 35900
" />
<path d="M88610 35840
L88840 35840
" />
<path d="M88690 35640
L88690 36160
L88720 36210
L88780 36240
L88840 36240
" />
<path d="M89750 36210
L89690 36240
L89580 36240
L89520 36210
L89490 36190
L89460 36130
L89460 35960
L89490 35900
L89520 35870
L89580 35840
L89690 35840
L89750 35870
" />
<path d="M90090 36240
L90030 36210
L90000 36190
L89970 36130
L89970 35960
L90000 35900
L90030 35870
L90090 35840
L90170 35840
L90230 35870
L90260 35900
L90290 35960
L90290 36130
L90260 36190
L90230 36210
L90170 36240
L90090 36240
" />
<path d="M90540 36240
L90540 35840
" />
<path d="M90540 35900
L90570 35870
L90630 35840
L90710 35840
L90770 35870
L90800 35930
L90800 36240
" />
<path d="M90800 35930
L90830 35870
L90890 35840
L90970 35840
L91030 35870
L91060 35930
L91060 36240
" />
<path d="M91340 35840
L91340 36440
" />
<path d="M91340 35870
L91400 35840
L91510 35840
L91570 35870
L91600 35900
L91630 35960
L91630 36130
L91600 36190
L91570 36210
L91510 36240
L91400 36240
L91340 36210
" />
<path d="M92140 35840
L92140 36240
" />
<path d="M91880 35840
L91880 36160
L91910 36210
L91970 36240
L92050 36240
L92110 36210
L92140 36190
" />
<path d="M92340 35840
L92570 35840
" />
<path d="M92420 35640
L92420 36160
L92450 36210
L92510 36240
L92570 36240
" />
<path d="M92990 36210
L92930 36240
L92820 36240
L92760 36210
L92730 36160
L92730 35930
L92760 35870
L92820 35840
L92930 35840
L92990 35870
L93020 35930
L93020 35990
L92730 36040
" />
<path d="M93270 36240
L93270 35840
" />
<path d="M93270 35960
L93300 35900
L93330 35870
L93390 35840
L93440 35840
" />
</g>
<g style="fill:#A00000; fill-opacity:0.0; 
stroke:#A00000; stroke-width:100; stroke-opacity:1; 
stroke-linecap:round; stroke-linejoin:round;">
<polyline fill="none;"
points="86000,36000
86300,36570
93730,36570
93730,36000
93730,35430
86300,35430
86000,36000
" /> 
</g>
<g style="fill:#A00000; fill-opacity:0.0; 
stroke:#A00000; stroke-width:0; stroke-opacity:1; 
stroke-linecap:round; stroke-linejoin:round;">
</g>
<g style="fill:#A00000; fill-opacity:0.0; 
stroke:#A00000; stroke-width:60; stroke-opacity:1; 
stroke-linecap:round; stroke-linejoin:round;">
<polyline fill="none;"
points="48000,31000
47400,31700
" /> 
<polyline fill="none;"
points="48000,33000
47400,32300
" /> 
<polyline fill="none;"
points="44000,34000
48000,32000
44000,30000
44000,34000
" /> 
<path d="M48000 31000
L51000 31000
" />
</g>
<g style="fill:#00A0A0; fill-opacity:0.0; 
stroke:#00A0A0; stroke-width:60; stroke-opacity:1; 
stroke-linecap:round; stroke-linejoin:round;">
</g>
<g style="fill:#A00000; fill-opacity:0.0; 
stroke:#A00000; stroke-width:60; stroke-opacity:1; 
stroke-linecap:round; stroke-linejoin:round;">
<path d="M49680 30840
L49330 30840
" />
<path d="M49510 30840
L49510 30240
L49450 30330
L49390 30390
L49330 30410
" />
<path d="M44000 31000
L41000 31000
" />
</g>
<g style="fill:#00A0A0; fill-opacity:0.0; 
stroke:#00A0A0; stroke-width:60; stroke-opacity:1; 
stroke-linecap:round; stroke-linejoin:round;">
<path d="M44300 31010
L44600 31010
" />
</g>
<g style="fill:#A00000; fill-opacity:0.0; 
stroke:#A00000; stroke-width:60; stroke-opacity:1; 
stroke-linecap:round; stroke-linejoin:round;">
<path d="M42330 30300
L42360 30270
L42420 30240
L42560 30240
L42620 30270
L42650 30300
L42680 30360
L42680 30410
L42650 30500
L42310 30840
L42680 30840
" />
<path d="M44000 33000
L41000 33000
" />
</g>
<g style="fill:#00A0A0; fill-opacity:0.0; 
stroke:#00A0A0; stroke-width:60; stroke-opacity:1; 
stroke-linecap:round; stroke-linejoin:round;">
<path d="M44300 33010
L44600 33010
" />
<path d="M44450 33160
L44450 32860
" />
</g>
<g style="fill:#A00000; fill-opacity:0.0; 
stroke:#A00000; stroke-width:60; stroke-opacity:1; 
stroke-linecap:round; stroke-linejoin:round;">
<path d="M42310 32240
L42680 32240
L42480 32470
L42560 32470
L42620 32500
L42650 32530
L42680 32590
L42680 32730
L42650 32790
L42620 32810
L42560 32840
L42390 32840
L42330 32810
L42310 32790
" />
<path d="M45000 30500
L45000 28000
" />
</g>
<g style="fill:#00A0A0; fill-opacity:0.0; 
stroke:#00A0A0; stroke-width:60; stroke-opacity:1; 
stroke-linecap:round; stroke-linejoin:round;">
<path d="M44760 31500
L45160 31370
L44760 31240
" />
<path d="M45010 31100
L45010 30800
" />
</g>
<g style="fill:#A00000; fill-opacity:0.0; 
stroke:#A00000; stroke-width:60; stroke-opacity:1; 
stroke-linecap:round; stroke-linejoin:round;">
<path d="M44440 29130
L44840 29130
" />
<path d="M44210 29270
L44640 29420
L44640 29040
" />
<path d="M46000 31000
L46000 28000
" />
</g>
<g style="fill:#00A0A0; fill-opacity:0.0; 
stroke:#00A0A0; stroke-width:60; stroke-opacity:1; 
stroke-linecap:round; stroke-linejoin:round;">
</g>
<g style="fill:#A00000; fill-opacity:0.0; 
stroke:#A00000; stroke-width:60; stroke-opacity:1; 
stroke-linecap:round; stroke-linejoin:round;">
<path d="M45240 29350
L45240 29640
L45530 29670
L45500 29640
L45470 29580
L45470 29440
L45500 29380
L45530 29350
L45590 29320
L45730 29320
L45790 29350
L45810 29380
L45840 29440
L45840 29580
L45810 29640
L45790 29670
" />
<path d="M47000 31500
L47000 28000
" />
</g>
<g style="fill:#00A0A0; fill-opacity:0.0; 
stroke:#00A0A0; stroke-width:60; stroke-opacity:1; 
stroke-linecap:round; stroke-linejoin:round;">
</g>
<g style="fill:#A00000; fill-opacity:0.0; 
stroke:#A00000; stroke-width:60; stroke-opacity:1; 
stroke-linecap:round; stroke-linejoin:round;">
<path d="M46240 29630
L46240 29740
L46270 29800
L46300 29830
L46390 29890
L46500 29920
L46730 29920
L46790 29890
L46810 29860
L46840 29800
L46840 29690
L46810 29630
L46790 29600
L46730 29570
L46590 29570
L46530 29600
L46500 29630
L46470 29690
L46470 29800
L46500 29860
L46530 29890
L46590 29920
" />
<path d="M45000 33500
L45000 36000
" />
</g>
<g style="fill:#00A0A0; fill-opacity:0.0; 
stroke:#00A0A0; stroke-width:60; stroke-opacity:1; 
stroke-linecap:round; stroke-linejoin:round;">
<path d="M44760 33260
L45160 33130
L44760 33000
" />
<path d="M45010 32860
L45010 32560
" />
<path d="M45160 32710
L44860 32710
" />
</g>
<g style="fill:#A00000; fill-opacity:0.0; 
stroke:#A00000; stroke-width:60; stroke-opacity:1; 
stroke-linecap:round; stroke-linejoin:round;">
<path d="M44240 34940
L44240 34540
L44840 34800
" />
<path d="M48000 33000
L51000 33000
" />
</g>
<g style="fill:#00A0A0; fill-opacity:0.0; 
stroke:#00A0A0; stroke-width:60; stroke-opacity:1; 
stroke-linecap:round; stroke-linejoin:round;">
</g>
<g style="fill:#A00000; fill-opacity:0.0; 
stroke:#A00000; stroke-width:60; stroke-opacity:1; 
stroke-linecap:round; stroke-linejoin:round;">
<path d="M49450 32500
L49390 32470
L49360 32440
L49330 32390
L49330 32360
L49360 32300
L49390 32270
L49450 32240
L49560 32240
L49620 32270
L49650 32300
L49680 32360
L49680 32390
L49650 32440
L49620 32470
L49560 32500
L49450 32500
L49390 32530
L49360 32560
L49330 32610
L49330 32730
L49360 32790
L49390 32810
L49450 32840
L49560 32840
L49620 32810
L49650 32790
L49680 32730
L49680 32610
L49650 32560
L49620 32530
L49560 32500
" />
</g>
<g style="fill:#00A0A0; fill-opacity:0.0; 
stroke:#00A0A0; stroke-width:60; stroke-opacity:1; 
stroke-linecap:round; stroke-linejoin:round;">
<path d="M46210 35110
L46340 35110
L46410 35150
L46480 35210
L46510 35350
L46510 35580
L46480 35710
L46410 35780
L46340 35810
L46210 35810
L46140 35780
L46080 35710
L46040 35580
L46040 35350
L46080 35210
L46140 35150
L46210 35110
" />
<path d="M46810 35350
L46810 36050
" />
<path d="M46810 35380
L46870 35350
L47010 35350
L47070 35380
L47110 35410
L47140 35480
L47140 35680
L47110 35750
L47070 35780
L47010 35810
L46870 35810
L46810 35780
" />
<path d="M47400 35610
L47740 35610
" />
<path d="M47340 35810
L47570 35110
L47800 35810
" />
<path d="M48040 35810
L48040 35350
" />
<path d="M48040 35410
L48070 35380
L48140 35350
L48240 35350
L48300 35380
L48340 35450
L48340 35810
" />
<path d="M48340 35450
L48370 35380
L48440 35350
L48540 35350
L48600 35380
L48640 35450
L48640 35810
" />
<path d="M48970 35350
L48970 36050
" />
<path d="M48970 35380
L49030 35350
L49170 35350
L49230 35380
L49270 35410
L49300 35480
L49300 35680
L49270 35750
L49230 35780
L49170 35810
L49030 35810
L48970 35780
" />
<path d="M49960 35810
L49560 35810
" />
<path d="M49760 35810
L49760 35110
L49700 35210
L49630 35280
L49560 35310
" />
<path d="M46810 34810
L46480 34810
L46480 34110
" />
<path d="M47050 34810
L47050 34110
L47280 34610
L47510 34110
L47510 34810
" />
<path d="M47780 34110
L48210 34110
L47980 34380
L48080 34380
L48150 34410
L48180 34450
L48210 34510
L48210 34680
L48180 34750
L48150 34780
L48080 34810
L47880 34810
L47810 34780
L47780 34750
" />
<path d="M48480 34180
L48520 34150
L48580 34110
L48750 34110
L48820 34150
L48850 34180
L48880 34250
L48880 34310
L48850 34410
L48450 34810
L48880 34810
" />
<path d="M49550 34810
L49150 34810
" />
<path d="M49350 34810
L49350 34110
L49290 34210
L49220 34280
L49150 34310
" />
</g>
<g style="fill:#00A000; fill-opacity:0.0; 
stroke:#00A000; stroke-width:60; stroke-opacity:1; 
stroke-linecap:round; stroke-linejoin:round;">
<path d="M45000 28000
L45000 27000
" />
<path d="M45000 27000
L48500 27000
" />
<path d="M47000 28000
L54500 28000
" />
</g>
<g style="fill:#00A000; fill-opacity:0.0; 
stroke:#00A000; stroke-width:0; stroke-opacity:1; 
stroke-linecap:round; stroke-linejoin:round;">
</g>
<g style="fill:#00A000; fill-opacity:1.0; 
stroke:#00A000; stroke-width:100; stroke-opacity:1; 
stroke-linecap:round; stroke-linejoin:round;">
<circle cx="49500" cy="28000" r="160" /> 
</g>
<g style="fill:#00A000; fill-opacity:1.0; 
stroke:#00A000; stroke-width:60; stroke-opacity:1; 
stroke-linecap:round; stroke-linejoin:round;">
<path d="M49500 25500
L49500 28000
" />
<path d="M54500 28000
L54500 32000
" />
</g>
<g style="fill:#00A000; fill-opacity:1.0; 
stroke:#00A000; stroke-width:0; stroke-opacity:1; 
stroke-linecap:round; stroke-linejoin:round;">
</g>
<g style="fill:#A00000; fill-opacity:0.0; 
stroke:#A00000; stroke-width:60; stroke-opacity:1; 
stroke-linecap:round; stroke-linejoin:round;">
<polyline fill="none;"
points="70000,35000
69400,35700
" /> 
<polyline fill="none;"
points="70000,37000
69400,36300
" /> 
<polyline fill="none;"
points="66000,38000
70000,36000
66000,34000
66000,38000
" /> 
<path d="M70000 35000
L73000 35000
" />
</g>
<g style="fill:#00A0A0; fill-opacity:0.0; 
stroke:#00A0A0; stroke-width:60; stroke-opacity:1; 
stroke-linecap:round; stroke-linejoin:round;">
</g>
<g style="fill:#A00000; fill-opacity:0.0; 
stroke:#A00000; stroke-width:60; stroke-opacity:1; 
stroke-linecap:round; stroke-linejoin:round;">
<path d="M71680 34840
L71330 34840
" />
<path d="M71510 34840
L71510 34240
L71450 34330
L71390 34390
L71330 34410
" />
<path d="M66000 35000
L63000 35000
" />
</g>
<g style="fill:#00A0A0; fill-opacity:0.0; 
stroke:#00A0A0; stroke-width:60; stroke-opacity:1; 
stroke-linecap:round; stroke-linejoin:round;">
<path d="M66300 35010
L66600 35010
" />
</g>
<g style="fill:#A00000; fill-opacity:0.0; 
stroke:#A00000; stroke-width:60; stroke-opacity:1; 
stroke-linecap:round; stroke-linejoin:round;">
<path d="M64330 34300
L64360 34270
L64420 34240
L64560 34240
L64620 34270
L64650 34300
L64680 34360
L64680 34410
L64650 34500
L64310 34840
L64680 34840
" />
<path d="M66000 37000
L63000 37000
" />
</g>
<g style="fill:#00A0A0; fill-opacity:0.0; 
stroke:#00A0A0; stroke-width:60; stroke-opacity:1; 
stroke-linecap:round; stroke-linejoin:round;">
<path d="M66300 37010
L66600 37010
" />
<path d="M66450 37160
L66450 36860
" />
</g>
<g style="fill:#A00000; fill-opacity:0.0; 
stroke:#A00000; stroke-width:60; stroke-opacity:1; 
stroke-linecap:round; stroke-linejoin:round;">
<path d="M64310 36240
L64680 36240
L64480 36470
L64560 36470
L64620 36500
L64650 36530
L64680 36590
L64680 36730
L64650 36790
L64620 36810
L64560 36840
L64390 36840
L64330 36810
L64310 36790
" />
<path d="M67000 34500
L67000 32000
" />
</g>
<g style="fill:#00A0A0; fill-opacity:0.0; 
stroke:#00A0A0; stroke-width:60; stroke-opacity:1; 
stroke-linecap:round; stroke-linejoin:round;">
<path d="M66760 35500
L67160 35370
L66760 35240
" />
<path d="M67010 35100
L67010 34800
" />
</g>
<g style="fill:#A00000; fill-opacity:0.0; 
stroke:#A00000; stroke-width:60; stroke-opacity:1; 
stroke-linecap:round; stroke-linejoin:round;">
<path d="M66440 33130
L66840 33130
" />
<path d="M66210 33270
L66640 33420
L66640 33040
" />
<path d="M68000 35000
L68000 32000
" />
</g>
<g style="fill:#00A0A0; fill-opacity:0.0; 
stroke:#00A0A0; stroke-width:60; stroke-opacity:1; 
stroke-linecap:round; stroke-linejoin:round;">
</g>
<g style="fill:#A00000; fill-opacity:0.0; 
stroke:#A00000; stroke-width:60; stroke-opacity:1; 
stroke-linecap:round; stroke-linejoin:round;">
<path d="M67240 33350
L67240 33640
L67530 33670
L67500 33640
L67470 33580
L67470 33440
L67500 33380
L67530 33350
L67590 33320
L67730 33320
L67790 33350
L67810 33380
L67840 33440
L67840 33580
L67810 33640
L67790 33670
" />
<path d="M69000 35500
L69000 32000
" />
</g>
<g style="fill:#00A0A0; fill-opacity:0.0; 
stroke:#00A0A0; stroke-width:60; stroke-opacity:1; 
stroke-linecap:round; stroke-linejoin:round;">
</g>
<g style="fill:#A00000; fill-opacity:0.0; 
stroke:#A00000; stroke-width:60; stroke-opacity:1; 
stroke-linecap:round; stroke-linejoin:round;">
<path d="M68240 33630
L68240 33740
L68270 33800
L68300 33830
L68390 33890
L68500 33920
L68730 33920
L68790 33890
L68810 33860
L68840 33800
L68840 33690
L68810 33630
L68790 33600
L68730 33570
L68590 33570
L68530 33600
L68500 33630
L68470 33690
L68470 33800
L68500 33860
L68530 33890
L68590 33920
" />
<path d="M67000 37500
L67000 40000
" />
</g>
<g style="fill:#00A0A0; fill-opacity:0.0; 
stroke:#00A0A0; stroke-width:60; stroke-opacity:1; 
stroke-linecap:round; stroke-linejoin:round;">
<path d="M66760 37260
L67160 37130
L66760 37000
" />
<path d="M67010 36860
L67010 36560
" />
<path d="M67160 36710
L66860 36710
" />
</g>
<g style="fill:#A00000; fill-opacity:0.0; 
stroke:#A00000; stroke-width:60; stroke-opacity:1; 
stroke-linecap:round; stroke-linejoin:round;">
<path d="M66240 38940
L66240 38540
L66840 38800
" />
<path d="M70000 37000
L73000 37000
" />
</g>
<g style="fill:#00A0A0; fill-opacity:0.0; 
stroke:#00A0A0; stroke-width:60; stroke-opacity:1; 
stroke-linecap:round; stroke-linejoin:round;">
</g>
<g style="fill:#A00000; fill-opacity:0.0; 
stroke:#A00000; stroke-width:60; stroke-opacity:1; 
stroke-linecap:round; stroke-linejoin:round;">
<path d="M71450 36500
L71390 36470
L71360 36440
L71330 36390
L71330 36360
L71360 36300
L71390 36270
L71450 36240
L71560 36240
L71620 36270
L71650 36300
L71680 36360
L71680 36390
L71650 36440
L71620 36470
L71560 36500
L71450 36500
L71390 36530
L71360 36560
L71330 36610
L71330 36730
L71360 36790
L71390 36810
L71450 36840
L71560 36840
L71620 36810
L71650 36790
L71680 36730
L71680 36610
L71650 36560
L71620 36530
L71560 36500
" />
</g>
<g style="fill:#00A0A0; fill-opacity:0.0; 
stroke:#00A0A0; stroke-width:60; stroke-opacity:1; 
stroke-linecap:round; stroke-linejoin:round;">
<path d="M68210 39110
L68340 39110
L68410 39150
L68480 39210
L68510 39350
L68510 39580
L68480 39710
L68410 39780
L68340 39810
L68210 39810
L68140 39780
L68080 39710
L68040 39580
L68040 39350
L68080 39210
L68140 39150
L68210 39110
" />
<path d="M68810 39350
L68810 40050
" />
<path d="M68810 39380
L68870 39350
L69010 39350
L69070 39380
L69110 39410
L69140 39480
L69140 39680
L69110 39750
L69070 39780
L69010 39810
L68870 39810
L68810 39780
" />
<path d="M69400 39610
L69740 39610
" />
<path d="M69340 39810
L69570 39110
L69800 39810
" />
<path d="M70040 39810
L70040 39350
" />
<path d="M70040 39410
L70070 39380
L70140 39350
L70240 39350
L70300 39380
L70340 39450
L70340 39810
" />
<path d="M70340 39450
L70370 39380
L70440 39350
L70540 39350
L70600 39380
L70640 39450
L70640 39810
" />
<path d="M70970 39350
L70970 40050
" />
<path d="M70970 39380
L71030 39350
L71170 39350
L71230 39380
L71270 39410
L71300 39480
L71300 39680
L71270 39750
L71230 39780
L71170 39810
L71030 39810
L70970 39780
" />
<path d="M71560 39180
L71600 39150
L71660 39110
L71830 39110
L71900 39150
L71930 39180
L71960 39250
L71960 39310
L71930 39410
L71530 39810
L71960 39810
" />
<path d="M68810 38810
L68480 38810
L68480 38110
" />
<path d="M69050 38810
L69050 38110
L69280 38610
L69510 38110
L69510 38810
" />
<path d="M69780 38110
L70210 38110
L69980 38380
L70080 38380
L70150 38410
L70180 38450
L70210 38510
L70210 38680
L70180 38750
L70150 38780
L70080 38810
L69880 38810
L69810 38780
L69780 38750
" />
<path d="M70480 38180
L70520 38150
L70580 38110
L70750 38110
L70820 38150
L70850 38180
L70880 38250
L70880 38310
L70850 38410
L70450 38810
L70880 38810
" />
<path d="M71550 38810
L71150 38810
" />
<path d="M71350 38810
L71350 38110
L71290 38210
L71220 38280
L71150 38310
" />
</g>
<g style="fill:#00A0A0; fill-opacity:0.0; 
stroke:#00A0A0; stroke-width:0; stroke-opacity:1; 
stroke-linecap:round; stroke-linejoin:round;">
</g>
<g style="fill:#00A000; fill-opacity:1.0; 
stroke:#00A000; stroke-width:100; stroke-opacity:1; 
stroke-linecap:round; stroke-linejoin:round;">
<circle cx="55000" cy="37000" r="160" /> 
</g>
<g style="fill:#00A000; fill-opacity:1.0; 
stroke:#00A000; stroke-width:60; stroke-opacity:1; 
stroke-linecap:round; stroke-linejoin:round;">
<path d="M63000 39500
L63000 37000
" />
<path d="M63000 37000
L55000 37000
" />
<path d="M59500 35000
L63000 35000
" />
<path d="M63000 35000
L63000 29500
" />
<path d="M67000 32000
L67000 31000
" />
<path d="M67000 31000
L83500 31000
" />
<path d="M69000 32000
L76500 32000
" />
<path d="M73000 32000
L73000 29500
" />
<path d="M86000 36000
L76500 36000
" />
<path d="M76500 36000
L76500 32000
" />
</g>
<g style="fill:#00A000; fill-opacity:1.0; 
stroke:#00A000; stroke-width:0; stroke-opacity:1; 
stroke-linecap:round; stroke-linejoin:round;">
</g>
<g style="fill:#00A000; fill-opacity:1.0; 
stroke:#00A000; stroke-width:100; stroke-opacity:1; 
stroke-linecap:round; stroke-linejoin:round;">
<circle cx="73000" cy="32000" r="160" /> 
</g>
<g style="fill:#00A000; fill-opacity:1.0; 
stroke:#00A000; stroke-width:60; stroke-opacity:1; 
stroke-linecap:round; stroke-linejoin:round;">
<path d="M67000 51000
L67000 40000
" />
<path d="M72760 34760
L73240 35240
" />
<path d="M73240 34760
L72760 35240
" />
</g>
<g style="fill:#0000C0; fill-opacity:1.0; 
stroke:#0000C0; stroke-width:60; stroke-opacity:1; 
stroke-linecap:round; stroke-linejoin:round;">
<path d="M72760 36760
L73240 37240
" />
<path d="M73240 36760
L72760 37240
" />
<path d="M67760 31760
L68240 32240
" />
<path d="M68240 31760
L67760 32240
" />
<path d="M45760 27760
L46240 28240
" />
<path d="M46240 27760
L45760 28240
" />
<path d="M50760 30760
L51240 31240
" />
<path d="M51240 30760
L50760 31240
" />
<path d="M50760 32760
L51240 33240
" />
<path d="M51240 32760
L50760 33240
" />
</g>
<g style="fill:#00A000; fill-opacity:1.0; 
stroke:#00A000; stroke-width:60; stroke-opacity:1; 
stroke-linecap:round; stroke-linejoin:round;">
<path d="M50000 37000
L39500 37000
" />
</g>
<g style="fill:#00A000; fill-opacity:1.0; 
stroke:#00A000; stroke-width:0; stroke-opacity:1; 
stroke-linecap:round; stroke-linejoin:round;">
</g>
<g style="fill:#00A000; fill-opacity:1.0; 
stroke:#00A000; stroke-width:100; stroke-opacity:1; 
stroke-linecap:round; stroke-linejoin:round;">
<circle cx="39500" cy="37000" r="160" /> 
</g>
<g style="fill:#00A000; fill-opacity:1.0; 
stroke:#00A000; stroke-width:60; stroke-opacity:1; 
stroke-linecap:round; stroke-linejoin:round;">
<path d="M63000 44500
L63000 46000
" />
</g>
<g style="fill:#00A000; fill-opacity:1.0; 
stroke:#00A000; stroke-width:0; stroke-opacity:1; 
stroke-linecap:round; stroke-linejoin:round;">
</g>
<g style="fill:#A00000; fill-opacity:0.0; 
stroke:#A00000; stroke-width:60; stroke-opacity:1; 
stroke-linecap:round; stroke-linejoin:round;">
<rect x="84500" y="31000" width="1000" height="500" rx="0" />
<circle cx="85000" cy="31850" r="350" /> 
<path d="M85000 32200
L85000 34500
" />
<path d="M84840 32820
L84840 33170
" />
<path d="M84840 32990
L84240 32990
L84330 33050
L84390 33110
L84410 33170
" />
</g>
<g style="fill:#00A0A0; fill-opacity:0.0; 
stroke:#00A0A0; stroke-width:60; stroke-opacity:1; 
stroke-linecap:round; stroke-linejoin:round;">
<path d="M84250 31500
L83550 31500
L83550 31240
L83590 31170
L83620 31140
L83690 31100
L83790 31100
L83850 31140
L83890 31170
L83920 31240
L83920 31500
" />
<path d="M83550 30870
L83550 30440
L83820 30670
L83820 30570
L83850 30500
L83890 30470
L83950 30440
L84120 30440
L84190 30470
L84220 30500
L84250 30570
L84250 30770
L84220 30840
L84190 30870
" />
<path d="M86190 33520
L86220 33560
L86250 33660
L86250 33720
L86220 33820
L86150 33890
L86090 33920
L85950 33960
L85850 33960
L85720 33920
L85650 33890
L85590 33820
L85550 33720
L85550 33660
L85590 33560
L85620 33520
" />
<path d="M85550 33090
L85550 32960
L85590 32890
L85650 32820
L85790 32790
L86020 32790
L86150 32820
L86220 32890
L86250 32960
L86250 33090
L86220 33160
L86150 33220
L86020 33260
L85790 33260
L85650 33220
L85590 33160
L85550 33090
" />
<path d="M86250 32490
L85550 32490
L86250 32090
L85550 32090
" />
<path d="M86250 31760
L85550 31760
L86250 31360
L85550 31360
" />
<path d="M85890 31030
L85890 30800
" />
<path d="M86250 30700
L86250 31030
L85550 31030
L85550 30700
" />
<path d="M86190 30000
L86220 30040
L86250 30140
L86250 30200
L86220 30300
L86150 30370
L86090 30400
L85950 30440
L85850 30440
L85720 30400
L85650 30370
L85590 30300
L85550 30200
L85550 30140
L85590 30040
L85620 30000
" />
<path d="M85550 29800
L85550 29400
" />
<path d="M86250 29600
L85550 29600
" />
<path d="M85550 29040
L85550 28910
L85590 28840
L85650 28770
L85790 28740
L86020 28740
L86150 28770
L86220 28840
L86250 28910
L86250 29040
L86220 29110
L86150 29170
L86020 29210
L85790 29210
L85650 29170
L85590 29110
L85550 29040
" />
<path d="M86250 28040
L85920 28280
" />
<path d="M86250 28440
L85550 28440
L85550 28180
L85590 28110
L85620 28080
L85690 28040
L85790 28040
L85850 28080
L85890 28110
L85920 28180
L85920 28440
" />
</g>
<g style="fill:#00A0A0; fill-opacity:0.0; 
stroke:#00A0A0; stroke-width:0; stroke-opacity:1; 
stroke-linecap:round; stroke-linejoin:round;">
</g>
<g style="fill:#A00000; fill-opacity:0.0; 
stroke:#A00000; stroke-width:60; stroke-opacity:1; 
stroke-linecap:round; stroke-linejoin:round;">
<rect x="33500" y="26500" width="1000" height="500" rx="0" />
<circle cx="34000" cy="27350" r="350" /> 
<path d="M34000 27700
L34000 30000
" />
<path d="M33840 28320
L33840 28670
" />
<path d="M33840 28490
L33240 28490
L33330 28550
L33390 28610
L33410 28670
" />
</g>
<g style="fill:#00A0A0; fill-opacity:0.0; 
stroke:#00A0A0; stroke-width:60; stroke-opacity:1; 
stroke-linecap:round; stroke-linejoin:round;">
<path d="M33250 27000
L32550 27000
L32550 26740
L32590 26670
L32620 26640
L32690 26600
L32790 26600
L32850 26640
L32890 26670
L32920 26740
L32920 27000
" />
<path d="M32620 26340
L32590 26300
L32550 26240
L32550 26070
L32590 26000
L32620 25970
L32690 25940
L32750 25940
L32850 25970
L33250 26370
L33250 25940
" />
<path d="M35190 29020
L35220 29060
L35250 29160
L35250 29220
L35220 29320
L35150 29390
L35090 29420
L34950 29460
L34850 29460
L34720 29420
L34650 29390
L34590 29320
L34550 29220
L34550 29160
L34590 29060
L34620 29020
" />
<path d="M34550 28590
L34550 28460
L34590 28390
L34650 28320
L34790 28290
L35020 28290
L35150 28320
L35220 28390
L35250 28460
L35250 28590
L35220 28660
L35150 28720
L35020 28760
L34790 28760
L34650 28720
L34590 28660
L34550 28590
" />
<path d="M35250 27990
L34550 27990
L35250 27590
L34550 27590
" />
<path d="M35250 27260
L34550 27260
L35250 26860
L34550 26860
" />
<path d="M34890 26530
L34890 26300
" />
<path d="M35250 26200
L35250 26530
L34550 26530
L34550 26200
" />
<path d="M35190 25500
L35220 25540
L35250 25640
L35250 25700
L35220 25800
L35150 25870
L35090 25900
L34950 25940
L34850 25940
L34720 25900
L34650 25870
L34590 25800
L34550 25700
L34550 25640
L34590 25540
L34620 25500
" />
<path d="M34550 25300
L34550 24900
" />
<path d="M35250 25100
L34550 25100
" />
<path d="M34550 24540
L34550 24410
L34590 24340
L34650 24270
L34790 24240
L35020 24240
L35150 24270
L35220 24340
L35250 24410
L35250 24540
L35220 24610
L35150 24670
L35020 24710
L34790 24710
L34650 24670
L34590 24610
L34550 24540
" />
<path d="M35250 23540
L34920 23780
" />
<path d="M35250 23940
L34550 23940
L34550 23680
L34590 23610
L34620 23580
L34690 23540
L34790 23540
L34850 23580
L34890 23610
L34920 23680
L34920 23940
" />
</g>
<g style="fill:#00A0A0; fill-opacity:0.0; 
stroke:#00A0A0; stroke-width:0; stroke-opacity:1; 
stroke-linecap:round; stroke-linejoin:round;">
</g>
<g style="fill:#A00000; fill-opacity:0.0; 
stroke:#A00000; stroke-width:60; stroke-opacity:1; 
stroke-linecap:round; stroke-linejoin:round;">
<rect x="31500" y="37000" width="1000" height="500" rx="0" />
<circle cx="32000" cy="36650" r="350" /> 
<path d="M32000 36300
L32000 34000
" />
<path d="M31840 35320
L31840 35670
" />
<path d="M31840 35490
L31240 35490
L31330 35550
L31390 35610
L31410 35670
" />
</g>
<g style="fill:#00A0A0; fill-opacity:0.0; 
stroke:#00A0A0; stroke-width:60; stroke-opacity:1; 
stroke-linecap:round; stroke-linejoin:round;">
<path d="M33310 38010
L32610 38010
L32610 37750
L32650 37680
L32680 37650
L32750 37610
L32850 37610
L32910 37650
L32950 37680
L32980 37750
L32980 38010
" />
<path d="M33310 36950
L33310 37350
" />
<path d="M33310 37150
L32610 37150
L32710 37210
L32780 37280
L32810 37350
" />
<path d="M31250 40020
L31280 40060
L31310 40160
L31310 40220
L31280 40320
L31210 40390
L31150 40420
L31010 40460
L30910 40460
L30780 40420
L30710 40390
L30650 40320
L30610 40220
L30610 40160
L30650 40060
L30680 40020
" />
<path d="M30610 39590
L30610 39460
L30650 39390
L30710 39320
L30850 39290
L31080 39290
L31210 39320
L31280 39390
L31310 39460
L31310 39590
L31280 39660
L31210 39720
L31080 39760
L30850 39760
L30710 39720
L30650 39660
L30610 39590
" />
<path d="M31310 38990
L30610 38990
L31310 38590
L30610 38590
" />
<path d="M31310 38260
L30610 38260
L31310 37860
L30610 37860
" />
<path d="M30950 37530
L30950 37300
" />
<path d="M31310 37200
L31310 37530
L30610 37530
L30610 37200
" />
<path d="M31250 36500
L31280 36540
L31310 36640
L31310 36700
L31280 36800
L31210 36870
L31150 36900
L31010 36940
L30910 36940
L30780 36900
L30710 36870
L30650 36800
L30610 36700
L30610 36640
L30650 36540
L30680 36500
" />
<path d="M30610 36300
L30610 35900
" />
<path d="M31310 36100
L30610 36100
" />
<path d="M30610 35540
L30610 35410
L30650 35340
L30710 35270
L30850 35240
L31080 35240
L31210 35270
L31280 35340
L31310 35410
L31310 35540
L31280 35610
L31210 35670
L31080 35710
L30850 35710
L30710 35670
L30650 35610
L30610 35540
" />
<path d="M31310 34540
L30980 34780
" />
<path d="M31310 34940
L30610 34940
L30610 34680
L30650 34610
L30680 34580
L30750 34540
L30850 34540
L30910 34580
L30950 34610
L30980 34680
L30980 34940
" />
</g>
<g style="fill:#00A000; fill-opacity:0.0; 
stroke:#00A000; stroke-width:60; stroke-opacity:1; 
stroke-linecap:round; stroke-linejoin:round;">
<path d="M34000 30000
L34000 31000
" />
</g>
<g style="fill:#00A000; fill-opacity:0.0; 
stroke:#00A000; stroke-width:0; stroke-opacity:1; 
stroke-linecap:round; stroke-linejoin:round;">
</g>
<g style="fill:#00A000; fill-opacity:1.0; 
stroke:#00A000; stroke-width:100; stroke-opacity:1; 
stroke-linecap:round; stroke-linejoin:round;">
<circle cx="34000" cy="31000" r="160" /> 
</g>
<g style="fill:#00A000; fill-opacity:1.0; 
stroke:#00A000; stroke-width:60; stroke-opacity:1; 
stroke-linecap:round; stroke-linejoin:round;">
<path d="M32000 34000
L32000 33000
" />
</g>
<g style="fill:#00A000; fill-opacity:1.0; 
stroke:#00A000; stroke-width:0; stroke-opacity:1; 
stroke-linecap:round; stroke-linejoin:round;">
</g>
<g style="fill:#00A000; fill-opacity:1.0; 
stroke:#00A000; stroke-width:100; stroke-opacity:1; 
stroke-linecap:round; stroke-linejoin:round;">
<circle cx="32000" cy="33000" r="160" /> 
</g>
<g style="fill:#00A000; fill-opacity:1.0; 
stroke:#00A000; stroke-width:60; stroke-opacity:1; 
stroke-linecap:round; stroke-linejoin:round;">
<path d="M85000 34500
L85000 36000
" />
</g>
<g style="fill:#00A000; fill-opacity:1.0; 
stroke:#00A000; stroke-width:0; stroke-opacity:1; 
stroke-linecap:round; stroke-linejoin:round;">
</g>
<g style="fill:#00A000; fill-opacity:1.0; 
stroke:#00A000; stroke-width:100; stroke-opacity:1; 
stroke-linecap:round; stroke-linejoin:round;">
<circle cx="85000" cy="36000" r="160" /> 
</g>
<g style="fill:#00A000; fill-opacity:1.0; 
stroke:#00A000; stroke-width:60; stroke-opacity:1; 
stroke-linecap:round; stroke-linejoin:round;">
<path d="M77500 46000
L77500 51000
" />
</g> 
</svg>
