<?xml version="1.0" standalone="no"?>
 <!DOCTYPE svg PUBLIC "-//W3C//DTD SVG 1.1//EN" 
 "http://www.w3.org/Graphics/SVG/1.1/DTD/svg11.dtd"> 
<svg xmlns="http://www.w3.org/2000/svg" version="1.1" 
    width="41.9989cm" height="29.7002cm" viewBox="0 0 165350 116930 ">
<title>SVG Picture created as schematics-F_SilkS.svg date 2015/11/09 02:59:40 </title>
  <desc>Picture generated by PCBNEW </desc>
<g style="fill:#000000; fill-opacity:1;stroke:#000000; stroke-opacity:1;
stroke-linecap:round; stroke-linejoin:round; "
 transform="translate(0 0) scale(1 1)">
</g>
<g style="fill:#000000; fill-opacity:0.0; 
stroke:#000000; stroke-width:39.3701; stroke-opacity:1; 
stroke-linecap:round; stroke-linejoin:round;">
<path d="M4000 4000
L161350 4000
L161350 112930
L4000 112930
L4000 4000
" />
<path d="M4700 4700
L160650 4700
L160650 112230
L4700 112230
L4700 4700
" />
<path d="M26470 4000
L26470 4700
" />
<path d="M15382 4552
L15097 4552
" />
<path d="M15240 4552
L15240 4052
L15192 4123
L15144 4171
L15097 4195
" />
<path d="M26470 112930
L26470 112230
" />
<path d="M15382 112782
L15097 112782
" />
<path d="M15240 112782
L15240 112282
L15192 112353
L15144 112401
L15097 112425
" />
<path d="M48940 4000
L48940 4700
" />
<path d="M37567 4100
L37590 4076
L37638 4052
L37757 4052
L37805 4076
L37829 4100
L37852 4147
L37852 4195
L37829 4266
L37543 4552
L37852 4552
" />
<path d="M48940 112930
L48940 112230
" />
<path d="M37567 112330
L37590 112306
L37638 112282
L37757 112282
L37805 112306
L37829 112330
L37852 112377
L37852 112425
L37829 112496
L37543 112782
L37852 112782
" />
<path d="M71410 4000
L71410 4700
" />
<path d="M60013 4052
L60322 4052
L60156 4242
L60227 4242
L60275 4266
L60299 4290
L60322 4338
L60322 4457
L60299 4504
L60275 4528
L60227 4552
L60084 4552
L60037 4528
L60013 4504
" />
<path d="M71410 112930
L71410 112230
" />
<path d="M60013 112282
L60322 112282
L60156 112472
L60227 112472
L60275 112496
L60299 112520
L60322 112568
L60322 112687
L60299 112734
L60275 112758
L60227 112782
L60084 112782
L60037 112758
L60013 112734
" />
<path d="M93880 4000
L93880 4700
" />
<path d="M82745 4219
L82745 4552
" />
<path d="M82626 4028
L82507 4385
L82816 4385
" />
<path d="M93880 112930
L93880 112230
" />
<path d="M82745 112449
L82745 112782
" />
<path d="M82626 112258
L82507 112615
L82816 112615
" />
<path d="M116350 4000
L116350 4700
" />
<path d="M105239 4052
L105000 4052
L104977 4290
L105000 4266
L105048 4242
L105167 4242
L105215 4266
L105239 4290
L105262 4338
L105262 4457
L105239 4504
L105215 4528
L105167 4552
L105048 4552
L105000 4528
L104977 4504
" />
<path d="M116350 112930
L116350 112230
" />
<path d="M105239 112282
L105000 112282
L104977 112520
L105000 112496
L105048 112472
L105167 112472
L105215 112496
L105239 112520
L105262 112568
L105262 112687
L105239 112734
L105215 112758
L105167 112782
L105048 112782
L105000 112758
L104977 112734
" />
<path d="M138820 4000
L138820 4700
" />
<path d="M127685 4052
L127590 4052
L127542 4076
L127518 4100
L127470 4171
L127447 4266
L127447 4457
L127470 4504
L127494 4528
L127542 4552
L127637 4552
L127685 4528
L127709 4504
L127732 4457
L127732 4338
L127709 4290
L127685 4266
L127637 4242
L127542 4242
L127494 4266
L127470 4290
L127447 4338
" />
<path d="M138820 112930
L138820 112230
" />
<path d="M127685 112282
L127590 112282
L127542 112306
L127518 112330
L127470 112401
L127447 112496
L127447 112687
L127470 112734
L127494 112758
L127542 112782
L127637 112782
L127685 112758
L127709 112734
L127732 112687
L127732 112568
L127709 112520
L127685 112496
L127637 112472
L127542 112472
L127494 112496
L127470 112520
L127447 112568
" />
<path d="M149893 4052
L150226 4052
L150012 4552
" />
<path d="M149893 112282
L150226 112282
L150012 112782
" />
<path d="M4000 25780
L4700 25780
" />
<path d="M4230 14949
L4469 14949
" />
<path d="M4183 15092
L4350 14592
L4516 15092
" />
<path d="M161350 25780
L160650 25780
" />
<path d="M160880 14949
L161119 14949
" />
<path d="M160833 15092
L161000 14592
L161166 15092
" />
<path d="M4000 47560
L4700 47560
" />
<path d="M4385 36610
L4457 36634
L4480 36658
L4504 36705
L4504 36777
L4480 36824
L4457 36848
L4409 36872
L4219 36872
L4219 36372
L4385 36372
L4433 36396
L4457 36420
L4480 36467
L4480 36515
L4457 36562
L4433 36586
L4385 36610
L4219 36610
" />
<path d="M161350 47560
L160650 47560
" />
<path d="M161035 36610
L161107 36634
L161130 36658
L161154 36705
L161154 36777
L161130 36824
L161107 36848
L161059 36872
L160869 36872
L160869 36372
L161035 36372
L161083 36396
L161107 36420
L161130 36467
L161130 36515
L161107 36562
L161083 36586
L161035 36610
L160869 36610
" />
<path d="M4000 69340
L4700 69340
" />
<path d="M4504 58604
L4480 58628
L4409 58652
L4361 58652
L4290 58628
L4242 58580
L4219 58533
L4195 58438
L4195 58366
L4219 58271
L4242 58223
L4290 58176
L4361 58152
L4409 58152
L4480 58176
L4504 58200
" />
<path d="M161350 69340
L160650 69340
" />
<path d="M161154 58604
L161130 58628
L161059 58652
L161011 58652
L160940 58628
L160892 58580
L160869 58533
L160845 58438
L160845 58366
L160869 58271
L160892 58223
L160940 58176
L161011 58152
L161059 58152
L161130 58176
L161154 58200
" />
<path d="M4000 91120
L4700 91120
" />
<path d="M4219 80432
L4219 79932
L4338 79932
L4409 79956
L4457 80003
L4480 80051
L4504 80146
L4504 80218
L4480 80313
L4457 80360
L4409 80408
L4338 80432
L4219 80432
" />
<path d="M161350 91120
L160650 91120
" />
<path d="M160869 80432
L160869 79932
L160988 79932
L161059 79956
L161107 80003
L161130 80051
L161154 80146
L161154 80218
L161130 80313
L161107 80360
L161059 80408
L160988 80432
L160869 80432
" />
<path d="M4242 101950
L4409 101950
" />
<path d="M4480 102212
L4242 102212
L4242 101712
L4480 101712
" />
<path d="M160892 101950
L161059 101950
" />
<path d="M161130 102212
L160892 102212
L160892 101712
L161130 101712
" />
<path d="M127800 110672
L127875 110072
L128017 110072
L128100 110101
L128150 110158
L128171 110215
L128185 110330
L128175 110415
L128132 110530
L128096 110587
L128032 110644
L127942 110672
L127800 110672
" />
<path d="M128657 110672
L128696 110358
L128675 110301
L128621 110272
L128507 110272
L128446 110301
" />
<path d="M128660 110644
L128600 110672
L128457 110672
L128403 110644
L128382 110587
L128389 110530
L128425 110472
L128485 110444
L128628 110444
L128689 110415
" />
<path d="M128907 110272
L129135 110272
" />
<path d="M129017 110072
L128953 110587
L128975 110644
L129028 110672
L129085 110672
" />
<path d="M129517 110644
L129457 110672
L129342 110672
L129289 110644
L129267 110587
L129296 110358
L129332 110301
L129392 110272
L129507 110272
L129560 110301
L129582 110358
L129575 110415
L129282 110472
" />
<path d="M129807 110615
L129832 110644
L129800 110672
L129775 110644
L129807 110615
L129800 110672
" />
<path d="M129846 110301
L129871 110330
L129839 110358
L129814 110330
L129846 110301
L129839 110358
" />
<path d="M130571 110672
L130685 110672
L130746 110644
L130778 110615
L130846 110530
L130889 110415
L130917 110187
L130896 110130
L130871 110101
L130817 110072
L130703 110072
L130642 110101
L130610 110130
L130575 110187
L130557 110330
L130578 110387
L130603 110415
L130657 110444
L130771 110444
L130832 110415
L130864 110387
L130900 110330
" />
<path d="M131621 110272
L131571 110672
" />
<path d="M131614 110330
L131646 110301
L131707 110272
L131792 110272
L131846 110301
L131867 110358
L131828 110672
" />
<path d="M132200 110672
L132146 110644
L132121 110615
L132100 110558
L132121 110387
L132157 110330
L132189 110301
L132250 110272
L132335 110272
L132389 110301
L132414 110330
L132435 110387
L132414 110558
L132378 110615
L132346 110644
L132285 110672
L132200 110672
" />
<path d="M132650 110272
L132742 110672
L132935 110272
" />
<path d="M133610 110130
L133642 110101
L133703 110072
L133846 110072
L133900 110101
L133925 110130
L133946 110187
L133939 110244
L133900 110330
L133514 110672
L133885 110672
" />
<path d="M134332 110072
L134389 110072
L134442 110101
L134467 110130
L134489 110187
L134503 110301
L134485 110444
L134442 110558
L134407 110615
L134375 110644
L134314 110672
L134257 110672
L134203 110644
L134178 110615
L134157 110558
L134142 110444
L134160 110301
L134203 110187
L134239 110130
L134271 110101
L134332 110072
" />
<path d="M135028 110672
L134685 110672
" />
<path d="M134857 110672
L134932 110072
L134864 110158
L134800 110215
L134739 110244
" />
<path d="M135646 110072
L135360 110072
L135296 110358
L135328 110330
L135389 110301
L135532 110301
L135585 110330
L135610 110358
L135632 110415
L135614 110558
L135578 110615
L135546 110644
L135485 110672
L135342 110672
L135289 110644
L135264 110615
" />
<path d="M119392 111872
L119392 111272
" />
<path d="M119735 111872
L119478 111530
" />
<path d="M119735 111272
L119392 111615
" />
<path d="M119992 111872
L119992 111472
" />
<path d="M119992 111272
L119964 111301
L119992 111330
L120021 111301
L119992 111272
L119992 111330
" />
<path d="M120621 111815
L120592 111844
L120507 111872
L120450 111872
L120364 111844
L120307 111787
L120278 111730
L120250 111615
L120250 111530
L120278 111415
L120307 111358
L120364 111301
L120450 111272
L120507 111272
L120592 111301
L120621 111330
" />
<path d="M121135 111872
L121135 111558
L121107 111501
L121050 111472
L120935 111472
L120878 111501
" />
<path d="M121135 111844
L121078 111872
L120935 111872
L120878 111844
L120850 111787
L120850 111730
L120878 111672
L120935 111644
L121078 111644
L121135 111615
" />
<path d="M121678 111872
L121678 111272
" />
<path d="M121678 111844
L121621 111872
L121507 111872
L121450 111844
L121421 111815
L121392 111758
L121392 111587
L121421 111530
L121450 111501
L121507 111472
L121621 111472
L121678 111501
" />
<path d="M122421 111558
L122621 111558
" />
<path d="M122707 111872
L122421 111872
L122421 111272
L122707 111272
" />
<path d="M122964 111815
L122992 111844
L122964 111872
L122935 111844
L122964 111815
L122964 111872
" />
<path d="M123249 111872
L123249 111272
L123392 111272
L123478 111301
L123535 111358
L123564 111415
L123592 111530
L123592 111615
L123564 111730
L123535 111787
L123478 111844
L123392 111872
L123249 111872
" />
<path d="M123849 111815
L123878 111844
L123849 111872
L123821 111844
L123849 111815
L123849 111872
" />
<path d="M124107 111701
L124392 111701
" />
<path d="M124049 111872
L124249 111272
L124449 111872
" />
<path d="M124649 111815
L124678 111844
L124649 111872
L124621 111844
L124649 111815
L124649 111872
" />
<path d="M152942 110672
L152778 110387
" />
<path d="M152600 110672
L152675 110072
L152903 110072
L152957 110101
L152982 110130
L153003 110187
L152992 110272
L152957 110330
L152925 110358
L152864 110387
L152635 110387
" />
<path d="M153432 110644
L153371 110672
L153257 110672
L153203 110644
L153182 110587
L153210 110358
L153246 110301
L153307 110272
L153421 110272
L153475 110301
L153496 110358
L153489 110415
L153196 110472
" />
<path d="M153707 110272
L153800 110672
L153992 110272
" />
<path d="M154178 110615
L154203 110644
L154171 110672
L154146 110644
L154178 110615
L154171 110672
" />
<path d="M154217 110301
L154242 110330
L154210 110358
L154185 110330
L154217 110301
L154210 110358
" />
<path d="M119364 110644
L119450 110672
L119592 110672
L119650 110644
L119678 110615
L119707 110558
L119707 110501
L119678 110444
L119650 110415
L119592 110387
L119478 110358
L119421 110330
L119392 110301
L119364 110244
L119364 110187
L119392 110130
L119421 110101
L119478 110072
L119621 110072
L119707 110101
" />
<path d="M119964 110672
L119964 110272
" />
<path d="M119964 110072
L119935 110101
L119964 110130
L119992 110101
L119964 110072
L119964 110130
" />
<path d="M120192 110272
L120507 110272
L120192 110672
L120507 110672
" />
<path d="M120964 110644
L120907 110672
L120792 110672
L120735 110644
L120707 110587
L120707 110358
L120735 110301
L120792 110272
L120907 110272
L120964 110301
L120992 110358
L120992 110415
L120707 110472
" />
<path d="M121250 110615
L121278 110644
L121250 110672
L121221 110644
L121250 110615
L121250 110672
" />
<path d="M121250 110301
L121278 110330
L121250 110358
L121221 110330
L121250 110301
L121250 110358
" />
<path d="M121964 110501
L122250 110501
" />
<path d="M121907 110672
L122107 110072
L122307 110672
" />
<path d="M122450 110072
L122821 110072
L122621 110301
L122707 110301
L122764 110330
L122792 110358
L122821 110415
L122821 110558
L122792 110615
L122764 110644
L122707 110672
L122535 110672
L122478 110644
L122450 110615
" />
<path d="M152592 111872
L152592 111272
" />
<path d="M153135 111872
L153135 111272
" />
<path d="M153135 111844
L153078 111872
L152964 111872
L152907 111844
L152878 111815
L152850 111758
L152850 111587
L152878 111530
L152907 111501
L152964 111472
L153078 111472
L153135 111501
" />
<path d="M153421 111815
L153450 111844
L153421 111872
L153392 111844
L153421 111815
L153421 111872
" />
<path d="M153421 111501
L153450 111530
L153421 111558
L153392 111530
L153421 111501
L153421 111558
" />
<path d="M154478 111872
L154135 111872
" />
<path d="M154307 111872
L154307 111272
L154249 111358
L154192 111415
L154135 111444
" />
<path d="M155164 111244
L154650 112015
" />
<path d="M155678 111872
L155335 111872
" />
<path d="M155507 111872
L155507 111272
L155449 111358
L155392 111415
L155335 111444
" />
<path d="M119389 108872
L119732 108872
" />
<path d="M119485 109472
L119560 108872
" />
<path d="M119857 109472
L119907 109072
" />
<path d="M119932 108872
L119900 108901
L119925 108930
L119957 108901
L119932 108872
L119925 108930
" />
<path d="M120107 109072
L120335 109072
" />
<path d="M120217 108872
L120153 109387
L120175 109444
L120228 109472
L120285 109472
" />
<path d="M120571 109472
L120517 109444
L120496 109387
L120560 108872
" />
<path d="M121032 109444
L120971 109472
L120857 109472
L120803 109444
L120782 109387
L120810 109158
L120846 109101
L120907 109072
L121021 109072
L121075 109101
L121096 109158
L121089 109215
L120796 109272
" />
<path d="M121321 109415
L121346 109444
L121314 109472
L121289 109444
L121321 109415
L121314 109472
" />
<path d="M121360 109101
L121385 109130
L121353 109158
L121328 109130
L121360 109101
L121353 109158
" />
<path d="M119592 106758
L119392 106758
" />
<path d="M119392 107072
L119392 106472
L119678 106472
" />
<path d="M119907 107072
L119907 106672
" />
<path d="M119907 106472
L119878 106501
L119907 106530
L119935 106501
L119907 106472
L119907 106530
" />
<path d="M120278 107072
L120221 107044
L120192 106987
L120192 106472
" />
<path d="M120735 107044
L120678 107072
L120564 107072
L120507 107044
L120478 106987
L120478 106758
L120507 106701
L120564 106672
L120678 106672
L120735 106701
L120764 106758
L120764 106815
L120478 106872
" />
<path d="M121021 107015
L121050 107044
L121021 107072
L120992 107044
L121021 107015
L121021 107072
" />
<path d="M121021 106701
L121050 106730
L121021 106758
L120992 106730
L121021 106701
L121021 106758
" />
<path d="M121735 107044
L121792 107072
L121907 107072
L121964 107044
L121992 106987
L121992 106958
L121964 106901
L121907 106872
L121821 106872
L121764 106844
L121735 106787
L121735 106758
L121764 106701
L121821 106672
L121907 106672
L121964 106701
" />
<path d="M122507 107044
L122450 107072
L122335 107072
L122278 107044
L122250 107015
L122221 106958
L122221 106787
L122250 106730
L122278 106701
L122335 106672
L122450 106672
L122507 106701
" />
<path d="M122764 107072
L122764 106472
" />
<path d="M123021 107072
L123021 106758
L122992 106701
L122935 106672
L122850 106672
L122792 106701
L122764 106730
" />
<path d="M123535 107044
L123478 107072
L123364 107072
L123307 107044
L123278 106987
L123278 106758
L123307 106701
L123364 106672
L123478 106672
L123535 106701
L123564 106758
L123564 106815
L123278 106872
" />
<path d="M123821 107072
L123821 106672
" />
<path d="M123821 106730
L123850 106701
L123907 106672
L123992 106672
L124050 106701
L124078 106758
L124078 107072
" />
<path d="M124078 106758
L124107 106701
L124164 106672
L124250 106672
L124307 106701
L124335 106758
L124335 107072
" />
<path d="M124878 107072
L124878 106758
L124850 106701
L124792 106672
L124678 106672
L124621 106701
" />
<path d="M124878 107044
L124821 107072
L124678 107072
L124621 107044
L124592 106987
L124592 106930
L124621 106872
L124678 106844
L124821 106844
L124878 106815
" />
<path d="M125078 106672
L125307 106672
" />
<path d="M125164 106472
L125164 106987
L125192 107044
L125250 107072
L125307 107072
" />
<path d="M125507 107072
L125507 106672
" />
<path d="M125507 106472
L125478 106501
L125507 106530
L125535 106501
L125507 106472
L125507 106530
" />
<path d="M126050 107044
L125992 107072
L125878 107072
L125821 107044
L125792 107015
L125764 106958
L125764 106787
L125792 106730
L125821 106701
L125878 106672
L125992 106672
L126050 106701
" />
<path d="M126278 107044
L126335 107072
L126450 107072
L126507 107044
L126535 106987
L126535 106958
L126507 106901
L126450 106872
L126364 106872
L126307 106844
L126278 106787
L126278 106758
L126307 106701
L126364 106672
L126450 106672
L126507 106701
" />
<path d="M126792 107015
L126821 107044
L126792 107072
L126764 107044
L126792 107015
L126792 107072
" />
<path d="M127078 107072
L127078 106472
" />
<path d="M127135 106844
L127307 107072
" />
<path d="M127307 106672
L127078 106901
" />
<path d="M127564 107072
L127564 106672
" />
<path d="M127564 106472
L127535 106501
L127564 106530
L127592 106501
L127564 106472
L127564 106530
" />
<path d="M128107 107044
L128049 107072
L127935 107072
L127878 107044
L127849 107015
L127821 106958
L127821 106787
L127849 106730
L127878 106701
L127935 106672
L128049 106672
L128107 106701
" />
<path d="M128621 107072
L128621 106758
L128592 106701
L128535 106672
L128421 106672
L128364 106701
" />
<path d="M128621 107044
L128564 107072
L128421 107072
L128364 107044
L128335 106987
L128335 106930
L128364 106872
L128421 106844
L128564 106844
L128621 106815
" />
<path d="M129164 107072
L129164 106472
" />
<path d="M129164 107044
L129107 107072
L128992 107072
L128935 107044
L128907 107015
L128878 106958
L128878 106787
L128907 106730
L128935 106701
L128992 106672
L129107 106672
L129164 106701
" />
<path d="M129307 107130
L129764 107130
" />
<path d="M129907 106672
L129907 107272
" />
<path d="M129907 106701
L129964 106672
L130078 106672
L130135 106701
L130164 106730
L130192 106787
L130192 106958
L130164 107015
L130135 107044
L130078 107072
L129964 107072
L129907 107044
" />
<path d="M130707 107044
L130649 107072
L130535 107072
L130478 107044
L130449 107015
L130421 106958
L130421 106787
L130449 106730
L130478 106701
L130535 106672
L130649 106672
L130707 106701
" />
<path d="M130964 107072
L130964 106472
" />
<path d="M130964 106701
L131021 106672
L131135 106672
L131192 106701
L131221 106730
L131249 106787
L131249 106958
L131221 107015
L131192 107044
L131135 107072
L131021 107072
L130964 107044
" />
<path d="M119364 108244
L119450 108272
L119592 108272
L119650 108244
L119678 108215
L119707 108158
L119707 108101
L119678 108044
L119650 108015
L119592 107987
L119478 107958
L119421 107930
L119392 107901
L119364 107844
L119364 107787
L119392 107730
L119421 107701
L119478 107672
L119621 107672
L119707 107701
" />
<path d="M119964 108272
L119964 107672
" />
<path d="M120221 108272
L120221 107958
L120192 107901
L120135 107872
L120050 107872
L119992 107901
L119964 107930
" />
<path d="M120735 108244
L120678 108272
L120564 108272
L120507 108244
L120478 108187
L120478 107958
L120507 107901
L120564 107872
L120678 107872
L120735 107901
L120764 107958
L120764 108015
L120478 108072
" />
<path d="M121250 108244
L121192 108272
L121078 108272
L121021 108244
L120992 108187
L120992 107958
L121021 107901
L121078 107872
L121192 107872
L121250 107901
L121278 107958
L121278 108015
L120992 108072
" />
<path d="M121450 107872
L121678 107872
" />
<path d="M121535 107672
L121535 108187
L121564 108244
L121621 108272
L121678 108272
" />
<path d="M121878 108215
L121907 108244
L121878 108272
L121850 108244
L121878 108215
L121878 108272
" />
<path d="M121878 107901
L121907 107930
L121878 107958
L121850 107930
L121878 107901
L121878 107958
" />
<path d="M118650 106230
L118650 112230
" />
<path d="M118650 106230
L160650 106230
" />
<path d="M118650 106230
L160650 106230
" />
<path d="M118650 108630
L160650 108630
" />
<path d="M151850 109830
L151850 112230
" />
<path d="M118650 111030
L160650 111030
" />
<path d="M118650 109830
L160650 109830
" />
<path d="M125250 109830
L125250 111030
" />
</g>
<g style="fill:#00A0A0; fill-opacity:0.0; 
stroke:#00A0A0; stroke-width:80; stroke-opacity:1; 
stroke-linecap:round; stroke-linejoin:round;">
<path d="M73857 50672
L73571 50672
" />
<path d="M73714 50672
L73714 50122
L73666 50201
L73619 50253
L73571 50279
" />
<path d="M74071 50672
L74071 50122
L74238 50515
L74404 50122
L74404 50672
" />
<path d="M68928 53772
L69023 53772
L69071 53746
L69095 53720
L69142 53641
L69166 53536
L69166 53327
L69142 53275
L69119 53248
L69071 53222
L68976 53222
L68928 53248
L68904 53275
L68880 53327
L68880 53458
L68904 53510
L68928 53536
L68976 53563
L69071 53563
L69119 53536
L69142 53510
L69166 53458
" />
<path d="M69642 53772
L69357 53772
" />
<path d="M69500 53772
L69500 53222
L69452 53301
L69404 53353
L69357 53379
" />
<path d="M69952 53222
L70000 53222
L70047 53248
L70071 53275
L70095 53327
L70119 53432
L70119 53563
L70095 53667
L70071 53720
L70047 53746
L70000 53772
L69952 53772
L69904 53746
L69880 53720
L69857 53667
L69833 53563
L69833 53432
L69857 53327
L69880 53275
L69904 53248
L69952 53222
" />
<path d="M78857 55772
L78571 55772
" />
<path d="M78714 55772
L78714 55222
L78666 55301
L78619 55353
L78571 55379
" />
<path d="M79071 55772
L79071 55222
L79238 55615
L79404 55222
L79404 55772
" />
<path d="M73857 49172
L73571 49172
" />
<path d="M73714 49172
L73714 48622
L73666 48701
L73619 48753
L73571 48779
" />
<path d="M74071 49172
L74071 48622
L74238 49015
L74404 48622
L74404 49172
" />
<path d="M68928 55172
L69023 55172
L69071 55146
L69095 55120
L69142 55041
L69166 54936
L69166 54727
L69142 54675
L69119 54648
L69071 54622
L68976 54622
L68928 54648
L68904 54675
L68880 54727
L68880 54858
L68904 54910
L68928 54936
L68976 54963
L69071 54963
L69119 54936
L69142 54910
L69166 54858
" />
<path d="M69642 55172
L69357 55172
" />
<path d="M69500 55172
L69500 54622
L69452 54701
L69404 54753
L69357 54779
" />
<path d="M69952 54622
L70000 54622
L70047 54648
L70071 54675
L70095 54727
L70119 54832
L70119 54963
L70095 55067
L70071 55120
L70047 55146
L70000 55172
L69952 55172
L69904 55146
L69880 55120
L69857 55067
L69833 54963
L69833 54832
L69857 54727
L69880 54675
L69904 54648
L69952 54622
" />
<path d="M69357 52172
L69071 52172
" />
<path d="M69214 52172
L69214 51622
L69166 51701
L69119 51753
L69071 51779
" />
<path d="M69571 52172
L69571 51622
L69738 52015
L69904 51622
L69904 52172
" />
<path d="M77702 54157
L77702 54071
L77726 54028
L77773 53985
L77869 53964
L78035 53964
L78130 53985
L78178 54028
L78202 54071
L78202 54157
L78178 54200
L78130 54242
L78035 54264
L77869 54264
L77773 54242
L77726 54200
L77702 54157
" />
<path d="M77869 53771
L78369 53771
" />
<path d="M77892 53771
L77869 53728
L77869 53642
L77892 53600
L77916 53578
L77964 53557
L78107 53557
L78154 53578
L78178 53600
L78202 53642
L78202 53728
L78178 53771
" />
<path d="M78059 53385
L78059 53171
" />
<path d="M78202 53428
L77702 53278
L78202 53128
" />
<path d="M78202 52978
L77869 52978
" />
<path d="M77916 52978
L77892 52957
L77869 52914
L77869 52850
L77892 52807
L77940 52785
L78202 52785
" />
<path d="M77940 52785
L77892 52764
L77869 52721
L77869 52657
L77892 52614
L77940 52592
L78202 52592
" />
<path d="M77869 52378
L78369 52378
" />
<path d="M77892 52378
L77869 52335
L77869 52250
L77892 52207
L77916 52185
L77964 52164
L78107 52164
L78154 52185
L78178 52207
L78202 52250
L78202 52335
L78178 52378
" />
<path d="M78202 51735
L78202 51992
" />
<path d="M78202 51864
L77702 51864
L77773 51907
L77821 51950
L77845 51992
" />
<path d="M79823 53202
L79633 53202
L79633 52702
" />
<path d="M79957 53202
L79957 52702
L80090 53059
L80223 52702
L80223 53202
" />
<path d="M80376 52702
L80623 52702
L80490 52892
L80547 52892
L80585 52916
L80604 52940
L80623 52988
L80623 53107
L80604 53154
L80585 53178
L80547 53202
L80433 53202
L80395 53178
L80376 53154
" />
<path d="M80776 52750
L80795 52726
L80833 52702
L80928 52702
L80966 52726
L80985 52750
L81004 52797
L81004 52845
L80985 52916
L80757 53202
L81004 53202
" />
<path d="M81385 53202
L81157 53202
" />
<path d="M81271 53202
L81271 52702
L81233 52773
L81195 52821
L81157 52845
" />
<path d="M72842 50702
L72928 50702
L72971 50726
L73014 50773
L73035 50869
L73035 51035
L73014 51130
L72971 51178
L72928 51202
L72842 51202
L72800 51178
L72757 51130
L72735 51035
L72735 50869
L72757 50773
L72800 50726
L72842 50702
" />
<path d="M73228 50869
L73228 51369
" />
<path d="M73228 50892
L73271 50869
L73357 50869
L73400 50892
L73421 50916
L73442 50964
L73442 51107
L73421 51154
L73400 51178
L73357 51202
L73271 51202
L73228 51178
" />
<path d="M73614 51059
L73828 51059
" />
<path d="M73571 51202
L73721 50702
L73871 51202
" />
<path d="M74021 51202
L74021 50869
" />
<path d="M74021 50916
L74042 50892
L74085 50869
L74150 50869
L74192 50892
L74214 50940
L74214 51202
" />
<path d="M74214 50940
L74235 50892
L74278 50869
L74342 50869
L74385 50892
L74407 50940
L74407 51202
" />
<path d="M74621 50869
L74621 51369
" />
<path d="M74621 50892
L74664 50869
L74750 50869
L74792 50892
L74814 50916
L74835 50964
L74835 51107
L74814 51154
L74792 51178
L74750 51202
L74664 51202
L74621 51178
" />
<path d="M75007 50750
L75028 50726
L75071 50702
L75178 50702
L75221 50726
L75242 50750
L75264 50797
L75264 50845
L75242 50916
L74985 51202
L75264 51202
" />
<path d="M74202 54176
L74202 54366
L73702 54366
" />
<path d="M74202 54042
L73702 54042
L74059 53909
L73702 53776
L74202 53776
" />
<path d="M73702 53623
L73702 53376
L73892 53509
L73892 53452
L73916 53414
L73940 53395
L73988 53376
L74107 53376
L74154 53395
L74178 53414
L74202 53452
L74202 53566
L74178 53604
L74154 53623
" />
<path d="M73750 53223
L73726 53204
L73702 53166
L73702 53071
L73726 53033
L73750 53014
L73797 52995
L73845 52995
L73916 53014
L74202 53242
L74202 52995
" />
<path d="M74202 52614
L74202 52842
" />
<path d="M74202 52728
L73702 52728
L73773 52766
L73821 52804
L73845 52842
" />
</g>
<g style="fill:#00A0A0; fill-opacity:0.0; 
stroke:#00A0A0; stroke-width:120; stroke-opacity:1; 
stroke-linecap:round; stroke-linejoin:round;">
<path d="M76742 46928
L76542 46928
" />
<path d="M76542 47242
L76542 46642
L76828 46642
" />
<path d="M77142 47242
L77085 47214
L77057 47157
L77057 46642
" />
<path d="M77457 47242
L77400 47214
L77371 47185
L77342 47128
L77342 46957
L77371 46900
L77400 46871
L77457 46842
L77542 46842
L77600 46871
L77628 46900
L77657 46957
L77657 47128
L77628 47185
L77600 47214
L77542 47242
L77457 47242
" />
<path d="M78171 47242
L78171 46928
L78142 46871
L78085 46842
L77971 46842
L77914 46871
" />
<path d="M78171 47214
L78114 47242
L77971 47242
L77914 47214
L77885 47157
L77885 47100
L77914 47042
L77971 47014
L78114 47014
L78171 46985
" />
<path d="M78371 46842
L78600 46842
" />
<path d="M78457 46642
L78457 47157
L78485 47214
L78542 47242
L78600 47242
" />
<path d="M78800 47242
L78800 46842
" />
<path d="M78800 46642
L78771 46671
L78800 46700
L78828 46671
L78800 46642
L78800 46700
" />
<path d="M79085 46842
L79085 47242
" />
<path d="M79085 46900
L79114 46871
L79171 46842
L79257 46842
L79314 46871
L79342 46928
L79342 47242
" />
<path d="M79885 46842
L79885 47328
L79857 47385
L79828 47414
L79771 47442
L79685 47442
L79628 47414
" />
<path d="M79885 47214
L79828 47242
L79714 47242
L79657 47214
L79628 47185
L79600 47128
L79600 46957
L79628 46900
L79657 46871
L79714 46842
L79828 46842
L79885 46871
" />
<path d="M80485 47242
L80142 47242
" />
<path d="M80314 47242
L80314 46642
L80257 46728
L80200 46785
L80142 46814
" />
<path d="M78385 51242
L78042 51242
" />
<path d="M78214 51242
L78214 50642
L78157 50728
L78100 50785
L78042 50814
" />
<path d="M78614 50700
L78642 50671
L78700 50642
L78842 50642
L78900 50671
L78928 50700
L78957 50757
L78957 50814
L78928 50900
L78585 51242
L78957 51242
" />
<path d="M80742 46928
L80542 46928
" />
<path d="M80542 47242
L80542 46642
L80828 46642
" />
<path d="M81142 47242
L81085 47214
L81057 47157
L81057 46642
" />
<path d="M81457 47242
L81400 47214
L81371 47185
L81342 47128
L81342 46957
L81371 46900
L81400 46871
L81457 46842
L81542 46842
L81600 46871
L81628 46900
L81657 46957
L81657 47128
L81628 47185
L81600 47214
L81542 47242
L81457 47242
" />
<path d="M82171 47242
L82171 46928
L82142 46871
L82085 46842
L81971 46842
L81914 46871
" />
<path d="M82171 47214
L82114 47242
L81971 47242
L81914 47214
L81885 47157
L81885 47100
L81914 47042
L81971 47014
L82114 47014
L82171 46985
" />
<path d="M82371 46842
L82600 46842
" />
<path d="M82457 46642
L82457 47157
L82485 47214
L82542 47242
L82600 47242
" />
<path d="M82800 47242
L82800 46842
" />
<path d="M82800 46642
L82771 46671
L82800 46700
L82828 46671
L82800 46642
L82800 46700
" />
<path d="M83085 46842
L83085 47242
" />
<path d="M83085 46900
L83114 46871
L83171 46842
L83257 46842
L83314 46871
L83342 46928
L83342 47242
" />
<path d="M83885 46842
L83885 47328
L83857 47385
L83828 47414
L83771 47442
L83685 47442
L83628 47414
" />
<path d="M83885 47214
L83828 47242
L83714 47242
L83657 47214
L83628 47185
L83600 47128
L83600 46957
L83628 46900
L83657 46871
L83714 46842
L83828 46842
L83885 46871
" />
<path d="M84142 46700
L84171 46671
L84228 46642
L84371 46642
L84428 46671
L84457 46700
L84485 46757
L84485 46814
L84457 46900
L84114 47242
L84485 47242
" />
<path d="M82385 51242
L82042 51242
" />
<path d="M82214 51242
L82214 50642
L82157 50728
L82100 50785
L82042 50814
" />
<path d="M82614 50700
L82642 50671
L82700 50642
L82842 50642
L82900 50671
L82928 50700
L82957 50757
L82957 50814
L82928 50900
L82585 51242
L82957 51242
" />
<path d="M76342 60214
L76428 60242
L76571 60242
L76628 60214
L76657 60185
L76685 60128
L76685 60071
L76657 60014
L76628 59985
L76571 59957
L76457 59928
L76400 59900
L76371 59871
L76342 59814
L76342 59757
L76371 59700
L76400 59671
L76457 59642
L76600 59642
L76685 59671
" />
<path d="M77200 59842
L77200 60242
" />
<path d="M76942 59842
L76942 60157
L76971 60214
L77028 60242
L77114 60242
L77171 60214
L77200 60185
" />
<path d="M77485 59842
L77485 60442
" />
<path d="M77485 59871
L77542 59842
L77657 59842
L77714 59871
L77742 59900
L77771 59957
L77771 60128
L77742 60185
L77714 60214
L77657 60242
L77542 60242
L77485 60214
" />
<path d="M78028 59842
L78028 60442
" />
<path d="M78028 59871
L78085 59842
L78200 59842
L78257 59871
L78285 59900
L78314 59957
L78314 60128
L78285 60185
L78257 60214
L78200 60242
L78085 60242
L78028 60214
" />
<path d="M78657 60242
L78600 60214
L78571 60157
L78571 59642
" />
<path d="M78828 59842
L78971 60242
" />
<path d="M79114 59842
L78971 60242
L78914 60385
L78885 60414
L78828 60442
" />
<path d="M79657 60242
L79314 60242
" />
<path d="M79485 60242
L79485 59642
L79428 59728
L79371 59785
L79314 59814
" />
<path d="M77885 56242
L77542 56242
" />
<path d="M77714 56242
L77714 55642
L77657 55728
L77600 55785
L77542 55814
" />
<path d="M78114 55700
L78142 55671
L78200 55642
L78342 55642
L78400 55671
L78428 55700
L78457 55757
L78457 55814
L78428 55900
L78085 56242
L78457 56242
" />
<path d="M72342 60214
L72428 60242
L72571 60242
L72628 60214
L72657 60185
L72685 60128
L72685 60071
L72657 60014
L72628 59985
L72571 59957
L72457 59928
L72400 59900
L72371 59871
L72342 59814
L72342 59757
L72371 59700
L72400 59671
L72457 59642
L72600 59642
L72685 59671
" />
<path d="M73200 59842
L73200 60242
" />
<path d="M72942 59842
L72942 60157
L72971 60214
L73028 60242
L73114 60242
L73171 60214
L73200 60185
" />
<path d="M73485 59842
L73485 60442
" />
<path d="M73485 59871
L73542 59842
L73657 59842
L73714 59871
L73742 59900
L73771 59957
L73771 60128
L73742 60185
L73714 60214
L73657 60242
L73542 60242
L73485 60214
" />
<path d="M74028 59842
L74028 60442
" />
<path d="M74028 59871
L74085 59842
L74200 59842
L74257 59871
L74285 59900
L74314 59957
L74314 60128
L74285 60185
L74257 60214
L74200 60242
L74085 60242
L74028 60214
" />
<path d="M74657 60242
L74600 60214
L74571 60157
L74571 59642
" />
<path d="M74828 59842
L74971 60242
" />
<path d="M75114 59842
L74971 60242
L74914 60385
L74885 60414
L74828 60442
" />
<path d="M75314 59700
L75342 59671
L75400 59642
L75542 59642
L75600 59671
L75628 59700
L75657 59757
L75657 59814
L75628 59900
L75285 60242
L75657 60242
" />
<path d="M73885 56242
L73542 56242
" />
<path d="M73714 56242
L73714 55642
L73657 55728
L73600 55785
L73542 55814
" />
<path d="M74114 55700
L74142 55671
L74200 55642
L74342 55642
L74400 55671
L74428 55700
L74457 55757
L74457 55814
L74428 55900
L74085 56242
L74457 56242
" />
</g>
<g style="fill:#00A0A0; fill-opacity:0.0; 
stroke:#00A0A0; stroke-width:100; stroke-opacity:1; 
stroke-linecap:round; stroke-linejoin:round;">
<path d="M67704 48461
L67704 48061
L67857 48061
L67895 48080
L67914 48100
L67933 48138
L67933 48195
L67914 48233
L67895 48252
L67857 48271
L67704 48271
" />
<path d="M68066 48061
L68314 48061
L68180 48214
L68238 48214
L68276 48233
L68295 48252
L68314 48290
L68314 48385
L68295 48423
L68276 48442
L68238 48461
L68123 48461
L68085 48442
L68066 48423
" />
<path d="M81204 56961
L81204 56561
L81357 56561
L81395 56580
L81414 56600
L81433 56638
L81433 56695
L81414 56733
L81395 56752
L81357 56771
L81204 56771
" />
<path d="M81585 56600
L81604 56580
L81642 56561
L81738 56561
L81776 56580
L81795 56600
L81814 56638
L81814 56676
L81795 56733
L81566 56961
L81814 56961
" />
<path d="M83704 56961
L83704 56561
L83857 56561
L83895 56580
L83914 56600
L83933 56638
L83933 56695
L83914 56733
L83895 56752
L83857 56771
L83704 56771
" />
<path d="M84314 56961
L84085 56961
" />
<path d="M84200 56961
L84200 56561
L84161 56619
L84123 56657
L84085 56676
" />
</g>
<g style="fill:#00A0A0; fill-opacity:0.0; 
stroke:#00A0A0; stroke-width:80; stroke-opacity:1; 
stroke-linecap:round; stroke-linejoin:round;">
<path d="M75500 50500
L75300 50500
" />
<path d="M72500 50500
L72700 50500
" />
<path d="M72700 50500
L72700 50900
" />
<path d="M72700 50900
L75300 50900
" />
<path d="M75300 50900
L75300 50100
" />
<path d="M75300 50100
L72700 50100
" />
<path d="M72700 50100
L72700 50500
" />
<path d="M75300 50700
L75100 50900
" />
<path d="M68000 53500
L68200 53500
" />
<path d="M71000 53500
L70800 53500
" />
<path d="M70800 53500
L70800 53100
" />
<path d="M70800 53100
L68200 53100
" />
<path d="M68200 53100
L68200 53900
" />
<path d="M68200 53900
L70800 53900
" />
<path d="M70800 53900
L70800 53500
" />
<path d="M68200 53300
L68400 53100
" />
<path d="M77500 55500
L77700 55500
" />
<path d="M80500 55500
L80300 55500
" />
<path d="M80300 55500
L80300 55100
" />
<path d="M80300 55100
L77700 55100
" />
<path d="M77700 55100
L77700 55900
" />
<path d="M77700 55900
L80300 55900
" />
<path d="M80300 55900
L80300 55500
" />
<path d="M77700 55300
L77900 55100
" />
<path d="M75500 49000
L75300 49000
" />
<path d="M72500 49000
L72700 49000
" />
<path d="M72700 49000
L72700 49400
" />
<path d="M72700 49400
L75300 49400
" />
<path d="M75300 49400
L75300 48600
" />
<path d="M75300 48600
L72700 48600
" />
<path d="M72700 48600
L72700 49000
" />
<path d="M75300 49200
L75100 49400
" />
<path d="M71000 55000
L70800 55000
" />
<path d="M68000 55000
L68200 55000
" />
<path d="M68200 55000
L68200 55400
" />
<path d="M68200 55400
L70800 55400
" />
<path d="M70800 55400
L70800 54600
" />
<path d="M70800 54600
L68200 54600
" />
<path d="M68200 54600
L68200 55000
" />
<path d="M70800 55200
L70600 55400
" />
<path d="M71000 52000
L70800 52000
" />
<path d="M68000 52000
L68200 52000
" />
<path d="M68200 52000
L68200 52400
" />
<path d="M68200 52400
L70800 52400
" />
<path d="M70800 52400
L70800 51600
" />
<path d="M70800 51600
L68200 51600
" />
<path d="M68200 51600
L68200 52000
" />
<path d="M70800 52200
L70600 52400
" />
</g>
<g style="fill:#00A0A0; fill-opacity:0.0; 
stroke:#00A0A0; stroke-width:100; stroke-opacity:1; 
stroke-linecap:round; stroke-linejoin:round;">
<path d="M78500 52500
L79000 52500
" />
<path d="M79000 52500
L79000 53500
" />
<path d="M79000 53500
L78500 53500
" />
<path d="M78500 52000
L82500 52000
" />
<path d="M82500 52000
L82500 54000
" />
<path d="M82500 54000
L78500 54000
" />
<path d="M78500 54000
L78500 52000
" />
<path d="M74500 51500
L74500 52000
" />
<path d="M74500 52000
L73500 52000
" />
<path d="M73500 52000
L73500 51500
" />
<path d="M75000 51500
L75000 55500
" />
<path d="M75000 55500
L73000 55500
" />
<path d="M73000 55500
L73000 51500
" />
<path d="M73000 51500
L75000 51500
" />
</g>
<g style="fill:#00A0A0; fill-opacity:0.0; 
stroke:#00A0A0; stroke-width:120; stroke-opacity:1; 
stroke-linecap:round; stroke-linejoin:round;">
<path d="M80500 50000
L76500 50000
" />
<path d="M80500 50500
L80500 47500
" />
<path d="M80500 47500
L76500 47500
" />
<path d="M76500 47500
L76500 50500
" />
<path d="M76500 50500
L80500 50500
" />
<path d="M84500 50000
L80500 50000
" />
<path d="M84500 50500
L84500 47500
" />
<path d="M84500 47500
L80500 47500
" />
<path d="M80500 47500
L80500 50500
" />
<path d="M80500 50500
L84500 50500
" />
<path d="M76000 57000
L80000 57000
" />
<path d="M76000 56500
L76000 59500
" />
<path d="M76000 59500
L80000 59500
" />
<path d="M80000 59500
L80000 56500
" />
<path d="M80000 56500
L76000 56500
" />
<path d="M72000 57000
L76000 57000
" />
<path d="M72000 56500
L72000 59500
" />
<path d="M72000 59500
L76000 59500
" />
<path d="M76000 59500
L76000 56500
" />
<path d="M76000 56500
L72000 56500
" />
</g>
<g style="fill:#00A0A0; fill-opacity:0.0; 
stroke:#00A0A0; stroke-width:150; stroke-opacity:1; 
stroke-linecap:round; stroke-linejoin:round;">
<circle cx="68000" cy="49500" r="900" /> 
<circle cx="81500" cy="58000" r="900" /> 
<circle cx="84000" cy="58000" r="900" /> 
</g>
<g style="fill:#808000; fill-opacity:0.0; 
stroke:#808000; stroke-width:39.3701; stroke-opacity:1; 
stroke-linecap:round; stroke-linejoin:round;">
</g>
<g style="fill:#808000; fill-opacity:1.0; 
stroke:#808000; stroke-width:39.3701; stroke-opacity:1; 
stroke-linecap:round; stroke-linejoin:round;">
<circle cx="75500" cy="50500" r="255.315" /> 
<circle cx="72500" cy="50500" r="255.315" /> 
<circle cx="68000" cy="53500" r="255.315" /> 
<circle cx="71000" cy="53500" r="255.315" /> 
<circle cx="77500" cy="55500" r="255.315" /> 
<circle cx="80500" cy="55500" r="255.315" /> 
<circle cx="75500" cy="49000" r="255.315" /> 
<circle cx="72500" cy="49000" r="255.315" /> 
<circle cx="71000" cy="55000" r="255.315" /> 
<circle cx="68000" cy="55000" r="255.315" /> 
<circle cx="71000" cy="52000" r="255.315" /> 
<circle cx="68000" cy="52000" r="255.315" /> 
<polyline style="fill-rule:evenodd;"
points="78744,54755
78744,54244
79255,54244
79255,54755
78744,54755
" /> 
<circle cx="80000" cy="54500" r="255.315" /> 
<circle cx="81000" cy="54500" r="255.315" /> 
<circle cx="82000" cy="54500" r="255.315" /> 
<circle cx="82000" cy="51500" r="255.315" /> 
<circle cx="81000" cy="51500" r="255.315" /> 
<circle cx="80000" cy="51500" r="255.315" /> 
<circle cx="79000" cy="51500" r="255.315" /> 
<polyline style="fill-rule:evenodd;"
points="72244,51744
72755,51744
72755,52255
72244,52255
72244,51744
" /> 
<circle cx="72500" cy="53000" r="255.315" /> 
<circle cx="72500" cy="54000" r="255.315" /> 
<circle cx="72500" cy="55000" r="255.315" /> 
<circle cx="75500" cy="55000" r="255.315" /> 
<circle cx="75500" cy="54000" r="255.315" /> 
<circle cx="75500" cy="53000" r="255.315" /> 
<circle cx="75500" cy="52000" r="255.315" /> 
<polyline style="fill-rule:evenodd;"
points="77019,49480
77019,48519
77980,48519
77980,49480
77019,49480
" /> 
<circle cx="79500" cy="49000" r="480.315" /> 
<polyline style="fill-rule:evenodd;"
points="81019,49480
81019,48519
81980,48519
81980,49480
81019,49480
" /> 
<circle cx="83500" cy="49000" r="480.315" /> 
<polyline style="fill-rule:evenodd;"
points="79480,57519
79480,58480
78519,58480
78519,57519
79480,57519
" /> 
<circle cx="77000" cy="58000" r="480.315" /> 
<polyline style="fill-rule:evenodd;"
points="75480,57519
75480,58480
74519,58480
74519,57519
75480,57519
" /> 
<circle cx="73000" cy="58000" r="480.315" /> 
<circle cx="68000" cy="49500" r="780.315" /> 
<circle cx="81500" cy="58000" r="780.315" /> 
<circle cx="84000" cy="58000" r="780.315" /> 
</g> 
</svg>
