<?xml version="1.0" standalone="no"?>
 <!DOCTYPE svg PUBLIC "-//W3C//DTD SVG 1.1//EN" 
 "http://www.w3.org/Graphics/SVG/1.1/DTD/svg11.dtd"> 
<svg xmlns="http://www.w3.org/2000/svg" version="1.1" 
    width="41.9989cm" height="29.7002cm" viewBox="0 0 165350 116930 ">
<title>SVG Picture created as schematics-B_Cu.svg date 2015/11/09 02:59:40 </title>
  <desc>Picture generated by PCBNEW </desc>
<g style="fill:#000000; fill-opacity:1;stroke:#000000; stroke-opacity:1;
stroke-linecap:round; stroke-linejoin:round; "
 transform="translate(0 0) scale(1 1)">
</g>
<g style="fill:#000000; fill-opacity:0.0; 
stroke:#000000; stroke-width:39.3701; stroke-opacity:1; 
stroke-linecap:round; stroke-linejoin:round;">
<path d="M4000 4000
L161350 4000
L161350 112930
L4000 112930
L4000 4000
" />
<path d="M4700 4700
L160650 4700
L160650 112230
L4700 112230
L4700 4700
" />
<path d="M26470 4000
L26470 4700
" />
<path d="M15382 4552
L15097 4552
" />
<path d="M15240 4552
L15240 4052
L15192 4123
L15144 4171
L15097 4195
" />
<path d="M26470 112930
L26470 112230
" />
<path d="M15382 112782
L15097 112782
" />
<path d="M15240 112782
L15240 112282
L15192 112353
L15144 112401
L15097 112425
" />
<path d="M48940 4000
L48940 4700
" />
<path d="M37567 4100
L37590 4076
L37638 4052
L37757 4052
L37805 4076
L37829 4100
L37852 4147
L37852 4195
L37829 4266
L37543 4552
L37852 4552
" />
<path d="M48940 112930
L48940 112230
" />
<path d="M37567 112330
L37590 112306
L37638 112282
L37757 112282
L37805 112306
L37829 112330
L37852 112377
L37852 112425
L37829 112496
L37543 112782
L37852 112782
" />
<path d="M71410 4000
L71410 4700
" />
<path d="M60013 4052
L60322 4052
L60156 4242
L60227 4242
L60275 4266
L60299 4290
L60322 4338
L60322 4457
L60299 4504
L60275 4528
L60227 4552
L60084 4552
L60037 4528
L60013 4504
" />
<path d="M71410 112930
L71410 112230
" />
<path d="M60013 112282
L60322 112282
L60156 112472
L60227 112472
L60275 112496
L60299 112520
L60322 112568
L60322 112687
L60299 112734
L60275 112758
L60227 112782
L60084 112782
L60037 112758
L60013 112734
" />
<path d="M93880 4000
L93880 4700
" />
<path d="M82745 4219
L82745 4552
" />
<path d="M82626 4028
L82507 4385
L82816 4385
" />
<path d="M93880 112930
L93880 112230
" />
<path d="M82745 112449
L82745 112782
" />
<path d="M82626 112258
L82507 112615
L82816 112615
" />
<path d="M116350 4000
L116350 4700
" />
<path d="M105239 4052
L105000 4052
L104977 4290
L105000 4266
L105048 4242
L105167 4242
L105215 4266
L105239 4290
L105262 4338
L105262 4457
L105239 4504
L105215 4528
L105167 4552
L105048 4552
L105000 4528
L104977 4504
" />
<path d="M116350 112930
L116350 112230
" />
<path d="M105239 112282
L105000 112282
L104977 112520
L105000 112496
L105048 112472
L105167 112472
L105215 112496
L105239 112520
L105262 112568
L105262 112687
L105239 112734
L105215 112758
L105167 112782
L105048 112782
L105000 112758
L104977 112734
" />
<path d="M138820 4000
L138820 4700
" />
<path d="M127685 4052
L127590 4052
L127542 4076
L127518 4100
L127470 4171
L127447 4266
L127447 4457
L127470 4504
L127494 4528
L127542 4552
L127637 4552
L127685 4528
L127709 4504
L127732 4457
L127732 4338
L127709 4290
L127685 4266
L127637 4242
L127542 4242
L127494 4266
L127470 4290
L127447 4338
" />
<path d="M138820 112930
L138820 112230
" />
<path d="M127685 112282
L127590 112282
L127542 112306
L127518 112330
L127470 112401
L127447 112496
L127447 112687
L127470 112734
L127494 112758
L127542 112782
L127637 112782
L127685 112758
L127709 112734
L127732 112687
L127732 112568
L127709 112520
L127685 112496
L127637 112472
L127542 112472
L127494 112496
L127470 112520
L127447 112568
" />
<path d="M149893 4052
L150226 4052
L150012 4552
" />
<path d="M149893 112282
L150226 112282
L150012 112782
" />
<path d="M4000 25780
L4700 25780
" />
<path d="M4230 14949
L4469 14949
" />
<path d="M4183 15092
L4350 14592
L4516 15092
" />
<path d="M161350 25780
L160650 25780
" />
<path d="M160880 14949
L161119 14949
" />
<path d="M160833 15092
L161000 14592
L161166 15092
" />
<path d="M4000 47560
L4700 47560
" />
<path d="M4385 36610
L4457 36634
L4480 36658
L4504 36705
L4504 36777
L4480 36824
L4457 36848
L4409 36872
L4219 36872
L4219 36372
L4385 36372
L4433 36396
L4457 36420
L4480 36467
L4480 36515
L4457 36562
L4433 36586
L4385 36610
L4219 36610
" />
<path d="M161350 47560
L160650 47560
" />
<path d="M161035 36610
L161107 36634
L161130 36658
L161154 36705
L161154 36777
L161130 36824
L161107 36848
L161059 36872
L160869 36872
L160869 36372
L161035 36372
L161083 36396
L161107 36420
L161130 36467
L161130 36515
L161107 36562
L161083 36586
L161035 36610
L160869 36610
" />
<path d="M4000 69340
L4700 69340
" />
<path d="M4504 58604
L4480 58628
L4409 58652
L4361 58652
L4290 58628
L4242 58580
L4219 58533
L4195 58438
L4195 58366
L4219 58271
L4242 58223
L4290 58176
L4361 58152
L4409 58152
L4480 58176
L4504 58200
" />
<path d="M161350 69340
L160650 69340
" />
<path d="M161154 58604
L161130 58628
L161059 58652
L161011 58652
L160940 58628
L160892 58580
L160869 58533
L160845 58438
L160845 58366
L160869 58271
L160892 58223
L160940 58176
L161011 58152
L161059 58152
L161130 58176
L161154 58200
" />
<path d="M4000 91120
L4700 91120
" />
<path d="M4219 80432
L4219 79932
L4338 79932
L4409 79956
L4457 80003
L4480 80051
L4504 80146
L4504 80218
L4480 80313
L4457 80360
L4409 80408
L4338 80432
L4219 80432
" />
<path d="M161350 91120
L160650 91120
" />
<path d="M160869 80432
L160869 79932
L160988 79932
L161059 79956
L161107 80003
L161130 80051
L161154 80146
L161154 80218
L161130 80313
L161107 80360
L161059 80408
L160988 80432
L160869 80432
" />
<path d="M4242 101950
L4409 101950
" />
<path d="M4480 102212
L4242 102212
L4242 101712
L4480 101712
" />
<path d="M160892 101950
L161059 101950
" />
<path d="M161130 102212
L160892 102212
L160892 101712
L161130 101712
" />
<path d="M127800 110672
L127875 110072
L128017 110072
L128100 110101
L128150 110158
L128171 110215
L128185 110330
L128175 110415
L128132 110530
L128096 110587
L128032 110644
L127942 110672
L127800 110672
" />
<path d="M128657 110672
L128696 110358
L128675 110301
L128621 110272
L128507 110272
L128446 110301
" />
<path d="M128660 110644
L128600 110672
L128457 110672
L128403 110644
L128382 110587
L128389 110530
L128425 110472
L128485 110444
L128628 110444
L128689 110415
" />
<path d="M128907 110272
L129135 110272
" />
<path d="M129017 110072
L128953 110587
L128975 110644
L129028 110672
L129085 110672
" />
<path d="M129517 110644
L129457 110672
L129342 110672
L129289 110644
L129267 110587
L129296 110358
L129332 110301
L129392 110272
L129507 110272
L129560 110301
L129582 110358
L129575 110415
L129282 110472
" />
<path d="M129807 110615
L129832 110644
L129800 110672
L129775 110644
L129807 110615
L129800 110672
" />
<path d="M129846 110301
L129871 110330
L129839 110358
L129814 110330
L129846 110301
L129839 110358
" />
<path d="M130571 110672
L130685 110672
L130746 110644
L130778 110615
L130846 110530
L130889 110415
L130917 110187
L130896 110130
L130871 110101
L130817 110072
L130703 110072
L130642 110101
L130610 110130
L130575 110187
L130557 110330
L130578 110387
L130603 110415
L130657 110444
L130771 110444
L130832 110415
L130864 110387
L130900 110330
" />
<path d="M131621 110272
L131571 110672
" />
<path d="M131614 110330
L131646 110301
L131707 110272
L131792 110272
L131846 110301
L131867 110358
L131828 110672
" />
<path d="M132200 110672
L132146 110644
L132121 110615
L132100 110558
L132121 110387
L132157 110330
L132189 110301
L132250 110272
L132335 110272
L132389 110301
L132414 110330
L132435 110387
L132414 110558
L132378 110615
L132346 110644
L132285 110672
L132200 110672
" />
<path d="M132650 110272
L132742 110672
L132935 110272
" />
<path d="M133610 110130
L133642 110101
L133703 110072
L133846 110072
L133900 110101
L133925 110130
L133946 110187
L133939 110244
L133900 110330
L133514 110672
L133885 110672
" />
<path d="M134332 110072
L134389 110072
L134442 110101
L134467 110130
L134489 110187
L134503 110301
L134485 110444
L134442 110558
L134407 110615
L134375 110644
L134314 110672
L134257 110672
L134203 110644
L134178 110615
L134157 110558
L134142 110444
L134160 110301
L134203 110187
L134239 110130
L134271 110101
L134332 110072
" />
<path d="M135028 110672
L134685 110672
" />
<path d="M134857 110672
L134932 110072
L134864 110158
L134800 110215
L134739 110244
" />
<path d="M135646 110072
L135360 110072
L135296 110358
L135328 110330
L135389 110301
L135532 110301
L135585 110330
L135610 110358
L135632 110415
L135614 110558
L135578 110615
L135546 110644
L135485 110672
L135342 110672
L135289 110644
L135264 110615
" />
<path d="M119392 111872
L119392 111272
" />
<path d="M119735 111872
L119478 111530
" />
<path d="M119735 111272
L119392 111615
" />
<path d="M119992 111872
L119992 111472
" />
<path d="M119992 111272
L119964 111301
L119992 111330
L120021 111301
L119992 111272
L119992 111330
" />
<path d="M120621 111815
L120592 111844
L120507 111872
L120450 111872
L120364 111844
L120307 111787
L120278 111730
L120250 111615
L120250 111530
L120278 111415
L120307 111358
L120364 111301
L120450 111272
L120507 111272
L120592 111301
L120621 111330
" />
<path d="M121135 111872
L121135 111558
L121107 111501
L121050 111472
L120935 111472
L120878 111501
" />
<path d="M121135 111844
L121078 111872
L120935 111872
L120878 111844
L120850 111787
L120850 111730
L120878 111672
L120935 111644
L121078 111644
L121135 111615
" />
<path d="M121678 111872
L121678 111272
" />
<path d="M121678 111844
L121621 111872
L121507 111872
L121450 111844
L121421 111815
L121392 111758
L121392 111587
L121421 111530
L121450 111501
L121507 111472
L121621 111472
L121678 111501
" />
<path d="M122421 111558
L122621 111558
" />
<path d="M122707 111872
L122421 111872
L122421 111272
L122707 111272
" />
<path d="M122964 111815
L122992 111844
L122964 111872
L122935 111844
L122964 111815
L122964 111872
" />
<path d="M123249 111872
L123249 111272
L123392 111272
L123478 111301
L123535 111358
L123564 111415
L123592 111530
L123592 111615
L123564 111730
L123535 111787
L123478 111844
L123392 111872
L123249 111872
" />
<path d="M123849 111815
L123878 111844
L123849 111872
L123821 111844
L123849 111815
L123849 111872
" />
<path d="M124107 111701
L124392 111701
" />
<path d="M124049 111872
L124249 111272
L124449 111872
" />
<path d="M124649 111815
L124678 111844
L124649 111872
L124621 111844
L124649 111815
L124649 111872
" />
<path d="M152942 110672
L152778 110387
" />
<path d="M152600 110672
L152675 110072
L152903 110072
L152957 110101
L152982 110130
L153003 110187
L152992 110272
L152957 110330
L152925 110358
L152864 110387
L152635 110387
" />
<path d="M153432 110644
L153371 110672
L153257 110672
L153203 110644
L153182 110587
L153210 110358
L153246 110301
L153307 110272
L153421 110272
L153475 110301
L153496 110358
L153489 110415
L153196 110472
" />
<path d="M153707 110272
L153800 110672
L153992 110272
" />
<path d="M154178 110615
L154203 110644
L154171 110672
L154146 110644
L154178 110615
L154171 110672
" />
<path d="M154217 110301
L154242 110330
L154210 110358
L154185 110330
L154217 110301
L154210 110358
" />
<path d="M119364 110644
L119450 110672
L119592 110672
L119650 110644
L119678 110615
L119707 110558
L119707 110501
L119678 110444
L119650 110415
L119592 110387
L119478 110358
L119421 110330
L119392 110301
L119364 110244
L119364 110187
L119392 110130
L119421 110101
L119478 110072
L119621 110072
L119707 110101
" />
<path d="M119964 110672
L119964 110272
" />
<path d="M119964 110072
L119935 110101
L119964 110130
L119992 110101
L119964 110072
L119964 110130
" />
<path d="M120192 110272
L120507 110272
L120192 110672
L120507 110672
" />
<path d="M120964 110644
L120907 110672
L120792 110672
L120735 110644
L120707 110587
L120707 110358
L120735 110301
L120792 110272
L120907 110272
L120964 110301
L120992 110358
L120992 110415
L120707 110472
" />
<path d="M121250 110615
L121278 110644
L121250 110672
L121221 110644
L121250 110615
L121250 110672
" />
<path d="M121250 110301
L121278 110330
L121250 110358
L121221 110330
L121250 110301
L121250 110358
" />
<path d="M121964 110501
L122250 110501
" />
<path d="M121907 110672
L122107 110072
L122307 110672
" />
<path d="M122450 110072
L122821 110072
L122621 110301
L122707 110301
L122764 110330
L122792 110358
L122821 110415
L122821 110558
L122792 110615
L122764 110644
L122707 110672
L122535 110672
L122478 110644
L122450 110615
" />
<path d="M152592 111872
L152592 111272
" />
<path d="M153135 111872
L153135 111272
" />
<path d="M153135 111844
L153078 111872
L152964 111872
L152907 111844
L152878 111815
L152850 111758
L152850 111587
L152878 111530
L152907 111501
L152964 111472
L153078 111472
L153135 111501
" />
<path d="M153421 111815
L153450 111844
L153421 111872
L153392 111844
L153421 111815
L153421 111872
" />
<path d="M153421 111501
L153450 111530
L153421 111558
L153392 111530
L153421 111501
L153421 111558
" />
<path d="M154478 111872
L154135 111872
" />
<path d="M154307 111872
L154307 111272
L154249 111358
L154192 111415
L154135 111444
" />
<path d="M155164 111244
L154650 112015
" />
<path d="M155678 111872
L155335 111872
" />
<path d="M155507 111872
L155507 111272
L155449 111358
L155392 111415
L155335 111444
" />
<path d="M119389 108872
L119732 108872
" />
<path d="M119485 109472
L119560 108872
" />
<path d="M119857 109472
L119907 109072
" />
<path d="M119932 108872
L119900 108901
L119925 108930
L119957 108901
L119932 108872
L119925 108930
" />
<path d="M120107 109072
L120335 109072
" />
<path d="M120217 108872
L120153 109387
L120175 109444
L120228 109472
L120285 109472
" />
<path d="M120571 109472
L120517 109444
L120496 109387
L120560 108872
" />
<path d="M121032 109444
L120971 109472
L120857 109472
L120803 109444
L120782 109387
L120810 109158
L120846 109101
L120907 109072
L121021 109072
L121075 109101
L121096 109158
L121089 109215
L120796 109272
" />
<path d="M121321 109415
L121346 109444
L121314 109472
L121289 109444
L121321 109415
L121314 109472
" />
<path d="M121360 109101
L121385 109130
L121353 109158
L121328 109130
L121360 109101
L121353 109158
" />
<path d="M119592 106758
L119392 106758
" />
<path d="M119392 107072
L119392 106472
L119678 106472
" />
<path d="M119907 107072
L119907 106672
" />
<path d="M119907 106472
L119878 106501
L119907 106530
L119935 106501
L119907 106472
L119907 106530
" />
<path d="M120278 107072
L120221 107044
L120192 106987
L120192 106472
" />
<path d="M120735 107044
L120678 107072
L120564 107072
L120507 107044
L120478 106987
L120478 106758
L120507 106701
L120564 106672
L120678 106672
L120735 106701
L120764 106758
L120764 106815
L120478 106872
" />
<path d="M121021 107015
L121050 107044
L121021 107072
L120992 107044
L121021 107015
L121021 107072
" />
<path d="M121021 106701
L121050 106730
L121021 106758
L120992 106730
L121021 106701
L121021 106758
" />
<path d="M121735 107044
L121792 107072
L121907 107072
L121964 107044
L121992 106987
L121992 106958
L121964 106901
L121907 106872
L121821 106872
L121764 106844
L121735 106787
L121735 106758
L121764 106701
L121821 106672
L121907 106672
L121964 106701
" />
<path d="M122507 107044
L122450 107072
L122335 107072
L122278 107044
L122250 107015
L122221 106958
L122221 106787
L122250 106730
L122278 106701
L122335 106672
L122450 106672
L122507 106701
" />
<path d="M122764 107072
L122764 106472
" />
<path d="M123021 107072
L123021 106758
L122992 106701
L122935 106672
L122850 106672
L122792 106701
L122764 106730
" />
<path d="M123535 107044
L123478 107072
L123364 107072
L123307 107044
L123278 106987
L123278 106758
L123307 106701
L123364 106672
L123478 106672
L123535 106701
L123564 106758
L123564 106815
L123278 106872
" />
<path d="M123821 107072
L123821 106672
" />
<path d="M123821 106730
L123850 106701
L123907 106672
L123992 106672
L124050 106701
L124078 106758
L124078 107072
" />
<path d="M124078 106758
L124107 106701
L124164 106672
L124250 106672
L124307 106701
L124335 106758
L124335 107072
" />
<path d="M124878 107072
L124878 106758
L124850 106701
L124792 106672
L124678 106672
L124621 106701
" />
<path d="M124878 107044
L124821 107072
L124678 107072
L124621 107044
L124592 106987
L124592 106930
L124621 106872
L124678 106844
L124821 106844
L124878 106815
" />
<path d="M125078 106672
L125307 106672
" />
<path d="M125164 106472
L125164 106987
L125192 107044
L125250 107072
L125307 107072
" />
<path d="M125507 107072
L125507 106672
" />
<path d="M125507 106472
L125478 106501
L125507 106530
L125535 106501
L125507 106472
L125507 106530
" />
<path d="M126050 107044
L125992 107072
L125878 107072
L125821 107044
L125792 107015
L125764 106958
L125764 106787
L125792 106730
L125821 106701
L125878 106672
L125992 106672
L126050 106701
" />
<path d="M126278 107044
L126335 107072
L126450 107072
L126507 107044
L126535 106987
L126535 106958
L126507 106901
L126450 106872
L126364 106872
L126307 106844
L126278 106787
L126278 106758
L126307 106701
L126364 106672
L126450 106672
L126507 106701
" />
<path d="M126792 107015
L126821 107044
L126792 107072
L126764 107044
L126792 107015
L126792 107072
" />
<path d="M127078 107072
L127078 106472
" />
<path d="M127135 106844
L127307 107072
" />
<path d="M127307 106672
L127078 106901
" />
<path d="M127564 107072
L127564 106672
" />
<path d="M127564 106472
L127535 106501
L127564 106530
L127592 106501
L127564 106472
L127564 106530
" />
<path d="M128107 107044
L128049 107072
L127935 107072
L127878 107044
L127849 107015
L127821 106958
L127821 106787
L127849 106730
L127878 106701
L127935 106672
L128049 106672
L128107 106701
" />
<path d="M128621 107072
L128621 106758
L128592 106701
L128535 106672
L128421 106672
L128364 106701
" />
<path d="M128621 107044
L128564 107072
L128421 107072
L128364 107044
L128335 106987
L128335 106930
L128364 106872
L128421 106844
L128564 106844
L128621 106815
" />
<path d="M129164 107072
L129164 106472
" />
<path d="M129164 107044
L129107 107072
L128992 107072
L128935 107044
L128907 107015
L128878 106958
L128878 106787
L128907 106730
L128935 106701
L128992 106672
L129107 106672
L129164 106701
" />
<path d="M129307 107130
L129764 107130
" />
<path d="M129907 106672
L129907 107272
" />
<path d="M129907 106701
L129964 106672
L130078 106672
L130135 106701
L130164 106730
L130192 106787
L130192 106958
L130164 107015
L130135 107044
L130078 107072
L129964 107072
L129907 107044
" />
<path d="M130707 107044
L130649 107072
L130535 107072
L130478 107044
L130449 107015
L130421 106958
L130421 106787
L130449 106730
L130478 106701
L130535 106672
L130649 106672
L130707 106701
" />
<path d="M130964 107072
L130964 106472
" />
<path d="M130964 106701
L131021 106672
L131135 106672
L131192 106701
L131221 106730
L131249 106787
L131249 106958
L131221 107015
L131192 107044
L131135 107072
L131021 107072
L130964 107044
" />
<path d="M119364 108244
L119450 108272
L119592 108272
L119650 108244
L119678 108215
L119707 108158
L119707 108101
L119678 108044
L119650 108015
L119592 107987
L119478 107958
L119421 107930
L119392 107901
L119364 107844
L119364 107787
L119392 107730
L119421 107701
L119478 107672
L119621 107672
L119707 107701
" />
<path d="M119964 108272
L119964 107672
" />
<path d="M120221 108272
L120221 107958
L120192 107901
L120135 107872
L120050 107872
L119992 107901
L119964 107930
" />
<path d="M120735 108244
L120678 108272
L120564 108272
L120507 108244
L120478 108187
L120478 107958
L120507 107901
L120564 107872
L120678 107872
L120735 107901
L120764 107958
L120764 108015
L120478 108072
" />
<path d="M121250 108244
L121192 108272
L121078 108272
L121021 108244
L120992 108187
L120992 107958
L121021 107901
L121078 107872
L121192 107872
L121250 107901
L121278 107958
L121278 108015
L120992 108072
" />
<path d="M121450 107872
L121678 107872
" />
<path d="M121535 107672
L121535 108187
L121564 108244
L121621 108272
L121678 108272
" />
<path d="M121878 108215
L121907 108244
L121878 108272
L121850 108244
L121878 108215
L121878 108272
" />
<path d="M121878 107901
L121907 107930
L121878 107958
L121850 107930
L121878 107901
L121878 107958
" />
<path d="M118650 106230
L118650 112230
" />
<path d="M118650 106230
L160650 106230
" />
<path d="M118650 106230
L160650 106230
" />
<path d="M118650 108630
L160650 108630
" />
<path d="M151850 109830
L151850 112230
" />
<path d="M118650 111030
L160650 111030
" />
<path d="M118650 109830
L160650 109830
" />
<path d="M125250 109830
L125250 111030
" />
</g>
<g style="fill:#808000; fill-opacity:0.0; 
stroke:#808000; stroke-width:39.3701; stroke-opacity:1; 
stroke-linecap:round; stroke-linejoin:round;">
</g>
<g style="fill:#808000; fill-opacity:1.0; 
stroke:#808000; stroke-width:39.3701; stroke-opacity:1; 
stroke-linecap:round; stroke-linejoin:round;">
<circle cx="75500" cy="50500" r="255.315" /> 
<circle cx="72500" cy="50500" r="255.315" /> 
<circle cx="68000" cy="53500" r="255.315" /> 
<circle cx="71000" cy="53500" r="255.315" /> 
<circle cx="77500" cy="55500" r="255.315" /> 
<circle cx="80500" cy="55500" r="255.315" /> 
<circle cx="75500" cy="49000" r="255.315" /> 
<circle cx="72500" cy="49000" r="255.315" /> 
<circle cx="71000" cy="55000" r="255.315" /> 
<circle cx="68000" cy="55000" r="255.315" /> 
<circle cx="71000" cy="52000" r="255.315" /> 
<circle cx="68000" cy="52000" r="255.315" /> 
<polyline style="fill-rule:evenodd;"
points="78744,54755
78744,54244
79255,54244
79255,54755
78744,54755
" /> 
<circle cx="80000" cy="54500" r="255.315" /> 
<circle cx="81000" cy="54500" r="255.315" /> 
<circle cx="82000" cy="54500" r="255.315" /> 
<circle cx="82000" cy="51500" r="255.315" /> 
<circle cx="81000" cy="51500" r="255.315" /> 
<circle cx="80000" cy="51500" r="255.315" /> 
<circle cx="79000" cy="51500" r="255.315" /> 
<polyline style="fill-rule:evenodd;"
points="72244,51744
72755,51744
72755,52255
72244,52255
72244,51744
" /> 
<circle cx="72500" cy="53000" r="255.315" /> 
<circle cx="72500" cy="54000" r="255.315" /> 
<circle cx="72500" cy="55000" r="255.315" /> 
<circle cx="75500" cy="55000" r="255.315" /> 
<circle cx="75500" cy="54000" r="255.315" /> 
<circle cx="75500" cy="53000" r="255.315" /> 
<circle cx="75500" cy="52000" r="255.315" /> 
<polyline style="fill-rule:evenodd;"
points="77019,49480
77019,48519
77980,48519
77980,49480
77019,49480
" /> 
<circle cx="79500" cy="49000" r="480.315" /> 
<polyline style="fill-rule:evenodd;"
points="81019,49480
81019,48519
81980,48519
81980,49480
81019,49480
" /> 
<circle cx="83500" cy="49000" r="480.315" /> 
<polyline style="fill-rule:evenodd;"
points="79480,57519
79480,58480
78519,58480
78519,57519
79480,57519
" /> 
<circle cx="77000" cy="58000" r="480.315" /> 
<polyline style="fill-rule:evenodd;"
points="75480,57519
75480,58480
74519,58480
74519,57519
75480,57519
" /> 
<circle cx="73000" cy="58000" r="480.315" /> 
<circle cx="68000" cy="49500" r="780.315" /> 
<circle cx="81500" cy="58000" r="780.315" /> 
<circle cx="84000" cy="58000" r="780.315" /> 
</g>
<g style="fill:#00A000; fill-opacity:1.0; 
stroke:#00A000; stroke-width:100; stroke-opacity:1; 
stroke-linecap:round; stroke-linejoin:round;">
<path d="M68000 49500
L68000 52000
" />
<path d="M68000 52000
L69000 52000
" />
<path d="M75000 53500
L75500 54000
" />
<path d="M74500 53000
L75000 53500
" />
<path d="M74500 48000
L74500 53000
" />
<path d="M74000 47500
L74500 48000
" />
<path d="M71000 47500
L74000 47500
" />
<path d="M70500 48000
L71000 47500
" />
<path d="M70500 50500
L70500 48000
" />
<path d="M69000 52000
L70500 50500
" />
<path d="M72500 49000
L73000 49000
" />
<path d="M73500 54000
L72500 54000
" />
<path d="M74000 53500
L73500 54000
" />
<path d="M74000 49500
L74000 53500
" />
<path d="M73500 49000
L74000 49500
" />
<path d="M73000 49000
L73500 49000
" />
<path d="M72500 54000
L72000 54000
" />
<path d="M72000 54000
L71000 55000
" />
<path d="M80000 51500
L78000 49500
" />
<path d="M78000 49500
L77500 49000
" />
<path d="M77000 58000
L75000 58000
" />
<path d="M71000 53500
L70500 53500
" />
<path d="M69000 55000
L68000 55000
" />
<path d="M70500 53500
L69000 55000
" />
<path d="M75000 58000
L75000 59500
" />
<path d="M68000 59500
L68000 55000
" />
<path d="M68500 60000
L68000 59500
" />
<path d="M74500 60000
L68500 60000
" />
<path d="M75000 59500
L74500 60000
" />
<path d="M73000 58000
L73000 55000
" />
<path d="M73000 55000
L72500 55000
" />
<path d="M72500 50500
L71500 50500
" />
<path d="M71000 51000
L71000 52000
" />
<path d="M71500 50500
L71000 51000
" />
<path d="M71000 52000
L71500 52500
" />
<path d="M71500 52500
L72500 53000
" />
<path d="M68000 53500
L71000 52000
" />
<path d="M79000 58000
L78500 58000
" />
<path d="M76000 53000
L75500 53000
" />
<path d="M76500 53500
L76000 53000
" />
<path d="M76500 56500
L76500 53500
" />
<path d="M77500 56500
L76500 56500
" />
<path d="M78000 57000
L77500 56500
" />
<path d="M78000 57500
L78000 57000
" />
<path d="M78500 58000
L78000 57500
" />
<path d="M77500 53000
L77500 51000
" />
<path d="M77000 50500
L75500 50500
" />
<path d="M77500 51000
L77000 50500
" />
<path d="M77500 55500
L77500 53000
" />
<path d="M81000 53000
L81000 51500
" />
<path d="M77500 53000
L81000 53000
" />
<path d="M82000 54500
L83000 54500
" />
<path d="M83500 54000
L83500 49000
" />
<path d="M83000 54500
L83500 54000
" />
<path d="M80500 55500
L81000 55500
" />
<path d="M81500 56000
L81500 58000
" />
<path d="M81000 55500
L81500 56000
" />
<path d="M80000 54500
L80000 55500
" />
<path d="M80000 55500
L80500 55500
" />
<path d="M81000 54500
L82000 55500
" />
<path d="M84000 56000
L84000 58000
" />
<path d="M83500 55500
L84000 56000
" />
<path d="M82000 55500
L83500 55500
" />
<path d="M79500 49000
L79500 48500
" />
<path d="M76500 48000
L75500 49000
" />
<path d="M79000 48000
L76500 48000
" />
<path d="M79500 48500
L79000 48000
" />
<path d="M81000 54500
L81000 53500
" />
<path d="M81500 50000
L81500 49000
" />
<path d="M82000 50500
L81500 50000
" />
<path d="M82500 50500
L82000 50500
" />
<path d="M83000 51000
L82500 50500
" />
<path d="M83000 53500
L83000 51000
" />
<path d="M81000 53500
L83000 53500
" />
<path d="M81500 49000
L79500 49000
" />
</g>
<g style="fill:#FFFFFF; fill-opacity:1.0; 
stroke:#FFFFFF; stroke-width:39.3701; stroke-opacity:1; 
stroke-linecap:round; stroke-linejoin:round;">
<circle cx="75500" cy="50500" r="140.315" /> 
<circle cx="72500" cy="50500" r="140.315" /> 
<circle cx="68000" cy="53500" r="140.315" /> 
<circle cx="71000" cy="53500" r="140.315" /> 
<circle cx="77500" cy="55500" r="140.315" /> 
<circle cx="80500" cy="55500" r="140.315" /> 
<circle cx="75500" cy="49000" r="140.315" /> 
<circle cx="72500" cy="49000" r="140.315" /> 
<circle cx="71000" cy="55000" r="140.315" /> 
<circle cx="68000" cy="55000" r="140.315" /> 
<circle cx="71000" cy="52000" r="140.315" /> 
<circle cx="68000" cy="52000" r="140.315" /> 
<circle cx="79000" cy="54500" r="140.315" /> 
<circle cx="80000" cy="54500" r="140.315" /> 
<circle cx="81000" cy="54500" r="140.315" /> 
<circle cx="82000" cy="54500" r="140.315" /> 
<circle cx="82000" cy="51500" r="140.315" /> 
<circle cx="81000" cy="51500" r="140.315" /> 
<circle cx="80000" cy="51500" r="140.315" /> 
<circle cx="79000" cy="51500" r="140.315" /> 
<circle cx="72500" cy="52000" r="140.315" /> 
<circle cx="72500" cy="53000" r="140.315" /> 
<circle cx="72500" cy="54000" r="140.315" /> 
<circle cx="72500" cy="55000" r="140.315" /> 
<circle cx="75500" cy="55000" r="140.315" /> 
<circle cx="75500" cy="54000" r="140.315" /> 
<circle cx="75500" cy="53000" r="140.315" /> 
<circle cx="75500" cy="52000" r="140.315" /> 
<circle cx="77500" cy="49000" r="280.315" /> 
<circle cx="79500" cy="49000" r="280.315" /> 
<circle cx="81500" cy="49000" r="280.315" /> 
<circle cx="83500" cy="49000" r="280.315" /> 
<circle cx="79000" cy="58000" r="280.315" /> 
<circle cx="77000" cy="58000" r="280.315" /> 
<circle cx="75000" cy="58000" r="280.315" /> 
<circle cx="73000" cy="58000" r="280.315" /> 
<circle cx="68000" cy="49500" r="580.315" /> 
<circle cx="81500" cy="58000" r="580.315" /> 
<circle cx="84000" cy="58000" r="580.315" /> 
</g> 
</svg>
